<?xml version="1.0" encoding="UTF-8"?>
<svg id="svg5" xmlns="http://www.w3.org/2000/svg" xmlns:xlink="http://www.w3.org/1999/xlink" xmlns:svg="http://www.w3.org/2000/svg" xmlns:sodipodi="http://sodipodi.sourceforge.net/DTD/sodipodi-0.dtd" xmlns:ns1="http://www.iki.fi/pav/software/textext/" xmlns:inkscape="http://www.inkscape.org/namespaces/inkscape" version="1.1" viewBox="0 0 942.5 577.2">
  <defs>
    <style>
      .cls-1 {
        stroke-width: 4.1px;
      }

      .cls-1, .cls-2, .cls-3, .cls-4, .cls-5, .cls-6, .cls-7, .cls-8, .cls-9, .cls-10, .cls-11, .cls-12, .cls-13, .cls-14, .cls-15, .cls-16 {
        stroke-linejoin: round;
      }

      .cls-1, .cls-17, .cls-18, .cls-3, .cls-4, .cls-11, .cls-13, .cls-19, .cls-15 {
        fill: none;
      }

      .cls-1, .cls-18, .cls-3, .cls-4, .cls-5, .cls-6, .cls-7, .cls-8, .cls-11, .cls-12, .cls-14, .cls-15 {
        stroke: #000;
      }

      .cls-2 {
        fill: #d40000;
        stroke-dasharray: 0 0 12.7 12.7;
        stroke-width: 4.2px;
      }

      .cls-2, .cls-9, .cls-10, .cls-13, .cls-19 {
        stroke: #a00;
      }

      .cls-20 {
        clip-path: url(#clippath);
      }

      .cls-17, .cls-21, .cls-22, .cls-23, .cls-24, .cls-25, .cls-26 {
        stroke-width: 0px;
      }

      .cls-18 {
        opacity: 0;
        stroke-width: 0px;
      }

      .cls-18, .cls-19 {
        stroke-miterlimit: 10;
      }

      .cls-3 {
        stroke-width: 4.1px;
      }

      .cls-21, .cls-9, .cls-10 {
        fill: maroon;
      }

      .cls-27, .cls-4, .cls-28, .cls-11, .cls-29, .cls-30 {
        isolation: isolate;
      }

      .cls-27, .cls-5, .cls-6, .cls-7, .cls-23, .cls-8, .cls-12, .cls-14 {
        fill: #000;
      }

      .cls-27, .cls-28, .cls-29 {
        font-family: Avenir-Medium, Avenir;
        font-size: 48px;
        font-weight: 500;
      }

      .cls-4, .cls-8 {
        stroke-width: 4px;
      }

      .cls-4, .cls-11 {
        opacity: .2;
      }

      .cls-5 {
        stroke-width: 4.1px;
      }

      .cls-31 {
        clip-path: url(#clippath-1);
      }

      .cls-6 {
        stroke-width: 4.1px;
      }

      .cls-28, .cls-24 {
        fill: navy;
      }

      .cls-7 {
        stroke-width: 5.3px;
      }

      .cls-22 {
        fill: #a00;
      }

      .cls-9 {
        stroke-width: 3.4px;
      }

      .cls-10, .cls-13 {
        stroke-width: 3px;
      }

      .cls-11 {
        stroke-width: 4.1px;
      }

      .cls-25, .cls-29 {
        fill: #f60;
      }

      .cls-12 {
        stroke-width: 4.1px;
      }

      .cls-14 {
        stroke-width: 7.1px;
      }

      .cls-26 {
        fill: #fff;
      }

      .cls-15 {
        stroke-width: 3.3px;
      }

      .cls-16 {
        fill: #784421;
        stroke: #784421;
        stroke-width: 11.4px;
      }
    </style>
    <clipPath id="clippath">
      <rect class="cls-17" x="165.8" y="201.6" width="30.7" height="192.1"/>
    </clipPath>
    <clipPath id="clippath-1">
      <rect class="cls-17" x="811.4" y="170.4" width="34" height="26"/>
    </clipPath>
  </defs>
  <sodipodi:namedview id="namedview7" bordercolor="#000000" borderopacity="0.25" inkscape:current-layer="layer1" inkscape:cx="284.71227" inkscape:cy="329.30576" inkscape:deskcolor="#d1d1d1" inkscape:document-units="mm" inkscape:pagecheckerboard="0" inkscape:pageopacity="0.0" inkscape:showpageshadow="2" inkscape:window-height="744" inkscape:window-maximized="0" inkscape:window-width="1440" inkscape:window-x="0" inkscape:window-y="25" inkscape:zoom="0.72880595" pagecolor="#ffffff" showgrid="true">
    <inkscape:grid id="grid1" type="xygrid"/>
  </sodipodi:namedview>
  <g id="layer1" inkscape:groupmode="layer" inkscape:label="Layer 1">
    <g class="cls-20">
      <path id="path180" class="cls-25" d="M163.9,201.3h32.3v193.8H67v-152.3l48.4,41.5v-41.5l48.4,41.5v-83Z"/>
    </g>
    <path id="path395" class="cls-23" d="M756,307.9c5.1,0,9.2-4.1,9.2-9.2s-4.1-9.2-9.2-9.2-9.2,4.1-9.2,9.2,4.1,9.2,9.2,9.2ZM746.1,314h-3.4l-1.8,2.8-15.7,24.6,10.4,6.6,6.5-10.2v49.9h12.3v-30.7h3.1v30.7h12.3v-49.9l6.5,10.2,10.4-6.6-15.7-24.6-1.8-2.8h-23ZM817.5,307.9c5.1,0,9.2-4.1,9.2-9.2s-4.1-9.2-9.2-9.2-9.2,4.1-9.2,9.2,4.1,9.2,9.2,9.2ZM807.6,314h-3.4l-1.8,2.8-15.7,24.6,10.4,6.6,6.5-10.2v49.9h12.3v-30.7h3.1v30.7h12.3v-49.9l6.5,10.2,10.4-6.6-15.7-24.6-1.8-2.8h-23Z"/>
    <path id="path350" class="cls-16" d="M107.2,402.4h792.7"/>
    <g id="text3417" class="cls-30">
      <text class="cls-29" transform="translate(117.8 455.2)"><tspan x="0" y="0">Source</tspan></text>
    </g>
    <g id="text3417-9" class="cls-30">
      <text class="cls-27" transform="translate(695.5 452.6)"><tspan x="0" y="0">Receptor</tspan></text>
    </g>
    <g id="text3417-1" class="cls-30">
      <text class="cls-28" transform="translate(15 45.5)"><tspan x="0" y="0">Wind</tspan></text>
    </g>
    <path class="cls-17" d=""/>
    <path id="path5057" class="cls-17" d="M113.7,90.4l19.1-19.1-19.1-19.1" sodipodi:nodetypes="ccc"/>
    <path id="path3679" class="cls-17" d="M131.3,71.2"/>
    <g id="g7898" ns1:alignment="middle center" ns1:inkscapeversion="1.2.1" ns1:jacobian_sqrt="2.64583" ns1:pdfconverter="inkscape" ns1:preamble="/Users/vs498/Library/Application Support/org.inkscape.Inkscape/config/inkscape/extensions/textext/default_packages.tex" ns1:scale="7.5" ns1:stroke-to-path="0" ns1:texconverter="pdflatex" ns1:text="$$h$$" ns1:version="1.8.1">
      <g id="id-a8a3679f-b1c1-4944-b35f-20d6a9d82e7d">
        <g id="g7895">
          <path id="id-1d4eb261-1ef6-4e69-834e-e7adb2357511" class="cls-23" d="M126.6,282s0-.5-.6-.5c-1,0-4.2.3-5.4.5-.3,0-.8,0-.8.8s.4.6,1,.6c2.1,0,2.2.3,2.2.8v.9c-.1,0-6.5,25.4-6.5,25.4-.2.6-.2.7-.2,1,0,1,.9,1.2,1.3,1.2.7,0,1.4-.6,1.6-1.2l.8-3.3,1-4c.3-1,.6-2,.8-3,0-.3.5-1.7.5-2,.1-.4,1.5-2.8,3.1-4.1,1-.7,2.3-1.5,4.2-1.5s2.4,1.5,2.4,3.1c0,2.4-1.7,7.2-2.7,9.9-.3,1-.6,1.5-.6,2.4,0,2.1,1.6,3.6,3.7,3.6,4.2,0,5.8-6.4,5.8-6.8s-.3-.5-.5-.5c-.5,0-.5.1-.7.8-.6,2.4-2.1,5.5-4.5,5.5s-1-.4-1-1.5.3-2.1.8-3.1c.7-1.9,2.7-7.2,2.7-9.8s-1.7-4.7-5.1-4.7-4.9,1.4-6.6,3.4l3.5-14.1Z"/>
        </g>
      </g>
    </g>
    <path id="path8655" class="cls-5" d="M150.1,392.8l.7-189.7" sodipodi:nodetypes="cc"/>
    <path id="path8655-7" class="cls-5" d="M150.7,201.7v-48.9" sodipodi:nodetypes="cc"/>
    <path id="path8655-8" class="cls-7" d="M791.6,278.8l2.6-261"/>
    <path id="path8720" class="cls-8" d="M163.3,204h-26.7"/>
    <path id="path8720-0" class="cls-9" d="M830.6,113.3h-19.2"/>
    <path id="path8720-7" class="cls-8" d="M162.1,394.2h-26.7"/>
    <path class="cls-17" d=""/>
    <path id="path59729" class="cls-17" d="M812.5,155.8l7.8-7.8-7.8-7.8" sodipodi:nodetypes="ccc"/>
    <path id="path59881" class="cls-17" d="M813.7,124.4l7.8-7.8-7.8-7.8" sodipodi:nodetypes="ccc"/>
    <path id="path8655-0" class="cls-17" d="M820.8,116.7" sodipodi:nodetypes="cc"/>
    <g id="g10287" ns1:alignment="middle center" ns1:inkscapeversion="1.2.1" ns1:jacobian_sqrt="2.64583" ns1:pdfconverter="inkscape" ns1:preamble="/Users/vs498/Library/Application Support/org.inkscape.Inkscape/config/inkscape/extensions/textext/default_packages.tex" ns1:scale="7.5" ns1:stroke-to-path="0" ns1:texconverter="pdflatex" ns1:text="$$x$$" ns1:version="1.8.1">
      <g id="id-14b0eb88-cb6f-4cee-a690-a01d04e02f39">
        <g id="g10284">
          <path id="id-39d216e5-5f41-468e-88ab-b674404d48d7" class="cls-23" d="M501.3,524.2c.3-1,1.2-4.9,4.1-4.9s1.2,0,2.1.5c-1.2.3-2,1.2-2,2.3s.5,1.4,1.6,1.4,2.2-.7,2.2-2.4-2.4-2.7-3.8-2.7c-2.4,0-3.8,2.2-4.4,3.1-1-2.7-3.3-3.1-4.5-3.1-4.3,0-6.7,5.3-6.7,6.4s.5.5.5.5c.3,0,.5-.1.5-.5,1.4-4.4,4.2-5.5,5.6-5.5s2.2.4,2.2,2.8-.7,4-2.2,9.9c-.7,2.5-2.1,4.3-4,4.3s-1.2,0-2.1-.5c1-.3,2-1.1,2-2.3s-.9-1.4-1.5-1.4c-1.3,0-2.3,1-2.3,2.4s2,2.7,3.8,2.7c2.8,0,4.3-2.9,4.4-3.1.5,1.5,2,3.1,4.5,3.1,4.3,0,6.6-5.3,6.6-6.4s-.3-.5-.5-.5c-.4,0-.5.2-.6.5-1.4,4.5-4.2,5.5-5.5,5.5s-2.3-1.3-2.3-2.7.2-1.8.7-3.6l1.4-5.7Z"/>
        </g>
      </g>
    </g>
    <path id="path8655-4" class="cls-14" d="M185.7,500.4l598.9,2.1"/>
    <path id="path8720-3" class="cls-12" d="M786.6,515.7v-26.7"/>
    <path id="path8720-7-6" class="cls-6" d="M181.4,513v-26.7"/>
    <path id="path22363" class="cls-1" d="M171.7,197.6C302.7,31,601.4,25.4,795.3,20.4" sodipodi:nodetypes="cc"/>
    <path id="path24675" class="cls-3" d="M194.7,200.3c135.4-100.5,423.7,84.6,598.5,78.3" sodipodi:nodetypes="cc"/>
    <path id="path32853" class="cls-11" d="M183.3,202.3c-2.4-9.3,6.1-11.6,12.2-16.4,5.5-4.3,10-9.2,15.7-13.2,2.1-1.5,4.5-5.4,7-6.6,1.6-.7,13.4-6.1,14-6.6.4-.4-.4-1.3,0-1.6,1.6-1.5,6.6-2.3,8.7-3.3,1.5-.7,2-2.6,3.5-3.3,9.4-4.4,20.6-9.1,31.4-13.2,7-2.6,13.7-8.2,20.9-9.9,1.1-.3,2.4.3,3.5,0,.8-.2,1.2-1.1,1.7-1.6,1.2-.5,2.2-1.3,3.5-1.6,3.3-.8,29.3-8.5,31.4-9.9,3.4-2.2,5.1-3.8,8.7-4.9,1.1-.3,2.4.5,3.5,0,7-3.3,0-3.3,7-4.9,9-2.1,17.1-6.1,26.2-8.2,6.3-1.5,12.8-1.8,19.2-3.3,2.6-.6,6.2.5,8.7,0,1.3-.2,2.2-1.3,3.5-1.6,10.2-2.4,21.2-1.4,31.4-3.3,11.8-2.2,24.8,1.9,36.7,0,7.6-1.2,15.1-2.1,22.7-3.3,13.1-2.1,28.6,0,41.9,0s25.5-2.1,36.7,0c1.3.2,2.2,1.3,3.5,1.6,6,1.4,13.2-1.4,19.2,0,7.9,1.9,14.8,1.4,22.7,3.3,4.9,1.2,10.8-1.2,15.7,0,1.3.3,2.2,1.4,3.5,1.6,5.3,1,12.1,0,17.5,0,9,0,24.7,2,33.2,0,9.1-2.1,18.6-3.2,27.9-4.9,1.3-.2,2.3-1.1,3.5-1.6,2.3-.5,4.6-1.2,7-1.6,14.4-2.7,33.9-4,45.4-14.8"/>
    <path id="path32855" class="cls-11" d="M190.2,199c18.1-4.7,34.1-16.9,50.6-24.7,4.4-2.1,9.4-3,14-4.9,1.9-.8,3.3-2.5,5.2-3.3,10.7-4.6,23.3-8.8,34.9-11.5,6.2-1.4,13.1-.2,19.2-1.6,24.5-5.8,67.2-.6,90.8,4.9,10.6,2.5,22.4,2.7,33.2,4.9,10.8,2.3,20.8,7,31.4,9.9,6.1,1.6,11.4,2.3,17.5,3.3,6.6,1,12.8,5.4,19.2,6.6,1.7.3,3.5-.3,5.2,0,3.1.6,5.7,2.7,8.7,3.3,7.8,1.5,15.1,3.1,22.7,4.9,3.3.8,7.3.6,10.5,1.6.8.2,1,1.4,1.7,1.6,1.7.5,3.7-.7,5.2,0,2.9,1.3,5.3,2.2,8.7,3.3.6.2,1.2,0,1.7,0,1.2,0,2.4-.3,3.5,0,.8.2,1,1.4,1.7,1.6,6.5,2.4,14.2,3.3,20.9,4.9,8.4,2,15.6,5.1,24.4,6.6,12.5,2.1,25.7,4.6,38.4,6.6,3.4.5,7-.6,10.5,0,1.3.2,2.2,1.4,3.5,1.6,7.1,1.3,17.4,0,24.4,0h47.1c3.5,0,20,1.3,22.7,0,4.1-1.9,6.8-5.9,10.5-8.2,3.2-2,4.5-.9,7-3.3"/>
    <path id="path33595" class="cls-11" d="M781.9,128.3h-45.4c-11.7,0-23.8-1-34.9,1.6-6.6,1.6-14.3-1.3-20.9,0-2.4.4-4.6,1.3-7,1.6-4,.5-8.2-.5-12.2,0-1.8.2-3.4,1.4-5.2,1.6-10,1.2-18,1-27.9,3.3-5.5,1.3-12-1.3-17.5,0-1.3.3-2.3,1.3-3.5,1.6-2.6.8-6.1-.6-8.7,0-4.1,1-7.9,2.5-12.2,3.3-5.9,1.1-25.9.5-29.7,1.6-.8.2-1,1.4-1.7,1.6-7.9,2.5-20-1.4-29.7,1.6-7.2,2.3-30.6-.4-38.4-1.6-7.3-1.2-15.4,1.4-22.7,0-13.8-2.6-28.2-3.3-41.9-4.9-6-.7-11.7-3.9-17.5-4.9-4.7-.9-10.9,0-15.7,0-15.9,0-31.4-.2-47.1,1.6-7,.8-14,.3-20.9,1.6-8.8,1.7-17.6,5-26.2,6.6-1.7.3-3.5-.4-5.2,0-2.1.5-8.1,4.1-10.5,4.9-4.5,1.7-9.7,1.9-14,3.3-2,.6-2.1,4.3-5.2,3.3-1.1.3-2.4-.3-3.5,0-7,1.6,0,1.7-7,4.9-3.3,1.5-7.1,1.9-10.5,3.3-22.4,9.4-41.9,23.9-61.1,37.8,1.7-4.9,2.1-10.5,5.2-14.8,4.6-6.2,19.6-10.5,26.2-14.8,7.2-4.7,13.5-10.4,20.9-14.8,6.8-4,6.5-2.1,12.2-6.6,1.9-1.5,3.2-3.6,5.2-4.9,5.3-3.5,12.1-5.2,17.5-8.2,1.4-.8,2.2-2.4,3.5-3.3,7.6-5.4,20.8-9,29.7-13.2,1.5-.7,2.1-2.4,3.5-3.3,4.5-2.8,12.2-7,17.5-8.2,4.2-1,8-1.3,12.2-3.3,5.3-2.5-3.2-1.3,5.2-3.3,5.3-1.3,10.4-3.7,15.7-4.9,4.4-1,9.7-.3,14-1.6,3.2-1,5.5-2.3,8.7-3.3,1.6-.5,3.7.5,5.2,0,.8-.2,1-1.4,1.7-1.6,1.7-.5,3.6.5,5.2,0,5.4-1.7,10.3-.4,15.7-1.6,1.3-.3,2.2-1.3,3.5-1.6,6-1.4,13.1,1.1,19.2,0,12.5-2.4,47.8-3.4,61.1-1.6,3.9.5,7.4,1.8,10.5,3.3,3.4,1.6,8.5.9,12.2,1.6,5.3,1,13.3,3,17.5,4.9,10.8,5.1,21.9,9.3,33.2,13.2,1,.4,18,7.4,20.9,8.2,15.6,4.2,31.4,7.8,47.1,11.5,2.3.5,4.7-.4,7,0,1.3.2,2.3,1.3,3.5,1.6,3.1,1,7.3-1,10.5,0,1.2.4,2.2,1.3,3.5,1.6,5.1,1.2,12.1,0,17.5,0s22.9,1.5,26.2,0c3.7-1.7,5.3-.9,7-1.6.7-.3,1-1.4,1.7-1.6,1.7-.5,3.7.7,5.2,0,9.6-4.5,19-7.5,29.7-11.5.8-.3,1.2-1.1,1.7-1.6,2.9-1.1,5.7-2.5,8.7-3.3,1.1-.3,2.4.3,3.5,0,1.6-.5,2-2.6,3.5-3.3,6-2.8,13.1-5.3,19.2-8.2,1.6-.7,3.6.5,5.2,0,6.5-2-2.1-1.6,3.5-1.6"/>
    <path id="path35811" class="cls-4" d="M781.1,34.5c-8.3,0-16.1,1.5-23,4.9-1.4.7-5.5-1-6.6,0s.4,1.3,0,1.6c-.7.7-4-.3-4.9,0-1.2.4-2.2,1.1-3.3,1.6-.5.5-.9,1.4-1.6,1.6-2.9,1-6.9.7-9.9,1.6-2.2.7-4.5,3.9-6.6,4.9-7.9,4-18.1,7.7-26.3,13.2-4.8,3.2-9.7,7.3-14.8,9.9-2.7,1.4-7.1,1.9-9.9,3.3-6.6,3.3-14.4,6.5-21.4,8.2-4.9,1.2-8.6,5-13.2,6.6-2.1.7-4.4,1.1-6.6,1.6-.5,0-1.1-.2-1.6,0-2.3.8-4.2,2.7-6.6,3.3-1.1.3-2.2-.3-3.3,0-1.9.6-2,4.3-4.9,3.3-8.1,2-17.4,5.3-26.3,6.6-8.2,1.2-57.6,3.8-64.1,1.6-.7-.2-.9-1.4-1.6-1.6-4.9-1.6-11.5,1.6-16.4,0-.7-.2-1-1.3-1.6-1.6-3.1-1.5-8.3,1.1-11.5,0-.7-.2-.9-1.5-1.6-1.6-5.7-1.4-21.2,0-26.3-1.6-.7-.2-.9-1.4-1.6-1.6-1.6-.5-5,.8-6.6,0-4-2-8.6-1.8-13.2-3.3-1.4-.5-3.6.6-4.9,0s-.9-1.4-1.6-1.6c-2.6-.9-5.5.5-8.2,0-4.4-.9-8.4-2.7-13.2-3.3-17.5-2.2-49,0-65.8,3.3-6,1.2-18.7,5.8-24.7,8.2-2.3.9-4.2,2.7-6.6,3.3-1.1.3-2.2-.3-3.3,0-12.4,4.1-24.7,10.7-36.2,16.4-2.9,1.4-5.5,5.2-8.2,6.6-1,.5-2.2-.3-3.3,0-4.6,1.5-8.4,8.4-11.5,11.5-.4.4-1.2-.2-1.6,0-1.9,1-5.3,5.3-6.6,6.6-1.6,1.6-3.9,1.2-4.9,3.3s.4,1.3,0,1.6c-.7.7-3.9,1.1-4.9,1.6-2,1-3,3.9-4.9,4.9-1,.5-2.5-.8-3.3,0-.4.4.4,1.3,0,1.6-1.7,1.7-4.8,2.4-6.6,3.3-1.9,1-3.1,3.7-4.9,4.9-12.5,8.4-24.9,17.7-36.2,29.6,2.7-4.4,4.8-9.3,8.2-13.2,2.1-2.4,28.3-16.6,32.9-18.1,4.6-1.5,8.6-5,13.2-6.6,10.7-3.6,21.8-8.7,32.9-11.5,1.1-.3,2.2,0,3.3,0,2.7-.5,5.6-.8,8.2-1.6.7-.2.9-1.4,1.6-1.6,4.4-1.5,10.5-.2,14.8-1.6,8.7-2.9,18.6-3.6,28-4.9,7.5-1.1,15.5-.6,23-1.6,28.6-4.1-23.3,1.1,16.4-3.3,4.3-.5,8.9.6,13.2,0,6.9-1,14.9-1.1,21.4-3.3,5.4-1.8,39.7,0,47.7,0s19.2-1.5,28,0c1.7.3,3.2,1.4,4.9,1.6,5.4.8,11.1-.8,16.4,0,7.2,1,14.3,1.9,21.4,3.3,4.7.9,10.1-.9,14.8,0,13.8,2.8,27.5,3.2,41.1,6.6,4.2,1,9.2,2,13.2,3.3.7.2.9,1.4,1.6,1.6,1,.3,2.2-.3,3.3,0,.7.2.9,1.4,1.6,1.6,2.9,1,6.9.7,9.9,1.6,9.4,3.1-9.9.3,4.9,3.3,1.6.3,3.3-.3,4.9,0,3.3.7,6.7,3.7,9.9,4.9,8.1,3.2,16.5,6.2,24.7,8.2,2.4.6,4.2,2.7,6.6,3.3,1.1.3,2.2-.3,3.3,0,.7.2,1.1,1.1,1.6,1.6,1.1.5,2.1,1.3,3.3,1.6,7,1.8,14.2,2.5,21.4,4.9.7.2.9,1.4,1.6,1.6,3,1,6.2.4,9.9,1.6,3.7,1.2,9.3-.6,13.2,0,17.4,2.5,37.6,3.9,54.3-1.6s2.3.5,3.3,0c3.6-1.8,16.1-8.2,19.7-8.2"/>
    <path id="path35813" class="cls-4" d="M187.5,207.2c6.8-11.5,15.7-23.1,26.3-31.2,2.3-1.8,5.6-2,8.2-3.3,7.9-3.9,14.8-9.9,23-13.2,11.9-4.8-.6.1,8.2-1.6,3.3.4,5.4-2.6,8.2-3.3,5.4-1.3,11-2.2,16.4-3.3,1.2-.2,2.2-1.1,3.3-1.6,1.6-.5,3.2-1.4,4.9-1.6,8-1.3,16.7,0,24.7-1.6,1.2-.2,2.1-1.4,3.3-1.6,3.2-.6,6.6.5,9.9,0,14.1-2.4,28.3-1.6,42.8-1.6s17-1.3,24.7,0c10.4,1.7,20.7,3.8,31.2,4.9,14.1,1.6,2.6.9,14.8,4.9,6,2,15,4.1,21.4,4.9,15,1.9-1.9-2.5,13.2,1.6,10.6,2.9,20.9,7.3,31.2,9.9,4.8,1.2,8.6,4.7,13.2,6.6,3.2,1.3,6.7,1.9,9.9,3.3,5.5,2.4,10.7,5.9,16.4,8.2,6,2.4,12.2,2.6,18.1,4.9,14.9,6,30.2,10.8,46,14.8,4.2,1.1,9.1,3.6,13.2,4.9s3.9,3,4.9,3.3c4.6,1.5,10.2,1.8,14.8,3.3,3.2,1.1,6.3,4,9.9,4.9,6.9,1.7,14.3,1.9,21.4,3.3,1.2.2,2.1,1.4,3.3,1.6,4.5.9,10.5-1.4,14.8,0,.7.2.9,1.4,1.6,1.6,8.5,2.8,25.3-2.3,34.5,0,3.9,1,5.6,1.6,9.9,1.6s5.2-.7,6.6,0c4.8,2.4,9.3.7,14.8,1.6,1.7.3,3.2,1.4,4.9,1.6,4,.7,28-.9,28,3.3"/>
    <path id="path48660" class="cls-15" d="M800.7,20.7c0,.3,0,.6,0,.9,0,.3,0,.6,0,.9,0,.3,0,.6,0,.9,0,.3,0,.6,0,.9,0,.3,0,.6,0,.9,0,.3,0,.6,0,.9,0,.3,0,.6,0,.9,0,.3,0,.6.1.9,0,.3,0,.6.1.9,0,.3,0,.6.1.9,0,.3,0,.6.1.9,0,.3,0,.6.1.9,0,.3,0,.6.1.9,0,.3,0,.6.1.9,0,.3,0,.6.1.9,0,.3,0,.6.1.9,0,.3.1.6.2.9,0,.3.1.6.2.9,0,.3.1.6.2.9,0,.3.1.6.2.9,0,.3.1.6.2.9,0,.3.1.6.2.9,0,.3.1.6.2.9,0,.3.1.6.2.9,0,.3.1.6.2.9,0,.3.2.6.2.9,0,.3.2.6.2.9,0,.3.2.6.3.9,0,.3.2.6.3.9,0,.3.2.6.3.9,0,.3.2.6.3.9,0,.3.2.6.3.9.1.3.2.6.3.9.1.3.2.6.3.9.1.3.2.6.3.9.1.3.2.6.3.9.1.3.2.6.4.9.1.3.2.6.4.9.1.3.3.6.4.9.1.3.3.6.4.9.1.3.3.6.4.9.1.3.3.6.4.9.1.3.3.6.4.9.2.3.3.6.5.9.2.3.3.6.5.9.2.3.3.6.5.9.2.3.3.6.5.9.2.3.3.6.5.9.2.3.4.6.5.9.2.3.4.6.6.9.2.3.4.6.6.9.2.3.4.6.6.9.2.3.4.6.6.9.2.3.4.6.6.9.2.3.4.6.6.9.2.3.4.6.7.9.2.3.4.6.7.9.2.3.5.6.7.9.2.3.5.6.7.9.2.3.5.6.7.9.2.3.5.6.7.9.3.3.5.6.8.9.3.3.5.6.8.9.3.3.5.6.8.9.3.3.5.6.8.9.3.3.6.6.8.9.3.3.6.6.9.9.3.3.6.6.9.9.3.3.6.6.9.9.3.3.6.6.9.9.3.3.6.6.9.9.3.3.6.6.9.9.3.3.6.6,1,.9.3.3.7.6,1,.9.3.3.7.6,1,.9.3.3.7.6,1,.9.3.3.7.6,1,.9.3.3.7.6,1.1.9.4.3.7.6,1.1.9s.7.6,1.1.9c.4.3.7.6,1.1.9.4.3.7.6,1.1.9.4.3.7.6,1.1.9.4.3.8.6,1.1.9.4.3.8.6,1.1.9.4.3.8.6,1.2.9.4.3.8.6,1.2.9.4.3.8.6,1.2.9.4.3.8.6,1.2.9.4.3.8.6,1.2.9.4.3.8.6,1.2.9.4.3.8.6,1.2.9.4.3.8.6,1.2.9.4.3.8.6,1.2.9.4.3.8.6,1.2.9.4.3.8.6,1.2.9.4.3.8.6,1.2.9.4.3.8.6,1.2.9.4.3.8.6,1.3.9.4.3.8.6,1.3.9.4.3.8.6,1.3.9.4.3.8.6,1.3.9.4.3.8.6,1.2.9.4.3.8.6,1.2.9.4.3.8.6,1.2.9.4.3.8.6,1.2.9.4.3.8.6,1.2.9.4.3.8.6,1.2.9.4.3.8.6,1.2.9.4.3.8.6,1.2.9.4.3.8.6,1.2.9.4.3.8.6,1.2.9.4.3.8.6,1.2.9.4.3.8.6,1.1.9.4.3.8.6,1.1.9.4.3.7.6,1.1.9.4.3.7.6,1.1.9.4.3.7.6,1.1.9.4.3.7.6,1.1.9.3.3.7.6,1,.9.3.3.7.6,1,.9.3.3.7.6,1,.9.3.3.6.6,1,.9.3.3.6.6.9.9.3.3.6.6.9.9.3.3.6.6.9.9.3.3.6.6.9.9.3.3.6.6.8.9.3.3.5.6.8.9.3.3.5.6.8.9.2.3.5.6.7.9.2.3.5.6.7.9.2.3.4.6.7.9.2.3.4.6.6.9.2.3.4.6.6.9.2.3.4.6.6.9.2.3.4.6.5.9.2.3.3.6.5.9.2.3.3.6.4.9.1.3.3.6.4.9.1.3.3.6.4.9.1.3.2.6.3.9.1.3.2.6.3.9,0,.3.2.6.2.9,0,.3.1.6.2.9,0,.3.1.6.2.9,0,.3,0,.6.1.9,0,.3,0,.6,0,.9,0,.3,0,.6,0,.9,0,.3,0,.6,0,.9,0,.3,0,.6,0,.9,0,.3,0,.6,0,.9,0,.3,0,.6-.1.9,0,.3-.1.6-.2.9s-.1.6-.2.9c0,.3-.2.6-.2.9,0,.3-.2.6-.3.9-.1.3-.2.6-.3.9-.1.3-.2.6-.4.9-.1.3-.3.6-.4.9-.1.3-.3.6-.4.9-.2.3-.3.6-.5.9-.2.3-.3.6-.5.9-.2.3-.4.6-.6.9-.2.3-.4.6-.6.9s-.4.6-.6.9c-.2.3-.4.6-.7.9-.2.3-.5.6-.7.9-.2.3-.5.6-.7.9-.3.3-.5.6-.8.9-.3.3-.5.6-.8.9-.3.3-.5.6-.8.9-.3.3-.6.6-.9.9-.3.3-.6.6-.9.9-.3.3-.6.6-.9.9-.3.3-.6.6-.9.9-.3.3-.6.6-1,.9-.3.3-.7.6-1,.9-.3.3-.7.6-1,.9-.3.3-.7.6-1,.9-.3.3-.7.6-1.1.9-.4.3-.7.6-1.1.9-.4.3-.7.6-1.1.9-.4.3-.7.6-1.1.9-.4.3-.8.6-1.1.9-.4.3-.8.6-1.1.9-.4.3-.8.6-1.2.9-.4.3-.8.6-1.2.9-.4.3-.8.6-1.2.9-.4.3-.8.6-1.2.9-.4.3-.8.6-1.2.9-.4.3-.8.6-1.2.9-.4.3-.8.6-1.2.9-.4.3-.8.6-1.2.9-.4.3-.8.6-1.2.9-.4.3-.8.6-1.2.9-.4.3-.8.6-1.2.9-.4.3-.8.6-1.3.9-.4.3-.8.6-1.3.9-.4.3-.8.6-1.3.9-.4.3-.8.6-1.3.9-.4.3-.8.6-1.2.9-.4.3-.8.6-1.2.9-.4.3-.8.6-1.2.9-.4.3-.8.6-1.2.9-.4.3-.8.6-1.2.9-.4.3-.8.6-1.2.9-.4.3-.8.6-1.2.9-.4.3-.8.6-1.2.9-.4.3-.8.6-1.2.9-.4.3-.8.6-1.2.9-.4.3-.8.6-1.2.9-.4.3-.8.6-1.2.9-.4.3-.8.6-1.2.9-.4.3-.8.6-1.1.9-.4.3-.8.6-1.1.9-.4.3-.8.6-1.1.9-.4.3-.7.6-1.1.9-.4.3-.7.6-1.1.9-.4.3-.7.6-1.1.9-.4.3-.7.6-1.1.9-.4.3-.7.6-1.1.9-.3.3-.7.6-1,.9-.3.3-.7.6-1,.9-.3.3-.7.6-1,.9-.3.3-.7.6-1,.9-.3.3-.6.6-1,.9-.3.3-.6.6-.9.9-.3.3-.6.6-.9.9-.3.3-.6.6-.9.9-.3.3-.6.6-.9.9-.3.3-.6.6-.9.9-.3.3-.6.6-.9.9-.3.3-.6.6-.8.9-.3.3-.6.6-.8.9-.3.3-.5.6-.8.9-.3.3-.5.6-.8.9-.3.3-.5.6-.8.9-.3.3-.5.6-.7.9-.2.3-.5.6-.7.9-.2.3-.5.6-.7.9-.2.3-.5.6-.7.9-.2.3-.5.6-.7.9-.2.3-.4.6-.7.9-.2.3-.4.6-.6.9-.2.3-.4.6-.6.9-.2.3-.4.6-.6.9-.2.3-.4.6-.6.9-.2.3-.4.6-.6.9-.2.3-.4.6-.6.9-.2.3-.4.6-.5.9-.2.3-.3.6-.5.9-.2.3-.3.6-.5.9-.2.3-.3.6-.5.9-.2.3-.3.6-.5.9-.2.3-.3.6-.5.9-.1.3-.3.6-.4.9-.1.3-.3.6-.4.9-.1.3-.3.6-.4.9-.1.3-.3.6-.4.9-.1.3-.3.6-.4.9-.1.3-.3.6-.4.9-.1.3-.2.6-.4.9-.1.3-.2.6-.3.9-.1.3-.2.6-.3.9-.1.3-.2.6-.3.9-.1.3-.2.6-.3.9-.1.3-.2.6-.3.9,0,.3-.2.6-.3.9,0,.3-.2.6-.3.9,0,.3-.2.6-.3.9,0,.3-.2.6-.3.9,0,.3-.2.6-.2.9,0,.3-.2.6-.2.9,0,.3-.1.6-.2.9,0,.3-.1.6-.2.9,0,.3-.1.6-.2.9,0,.3-.1.6-.2.9,0,.3-.1.6-.2.9,0,.3-.1.6-.2.9,0,.3-.1.6-.2.9,0,.3-.1.6-.2.9,0,.3-.1.6-.2.9,0,.3-.1.6-.1.9,0,.3,0,.6-.1.9,0,.3,0,.6-.1.9,0,.3,0,.6-.1.9,0,.3,0,.6-.1.9,0,.3,0,.6-.1.9,0,.3,0,.6-.1.9,0,.3,0,.6-.1.9,0,.3,0,.6-.1.9,0,.3,0,.6,0,.9,0,.3,0,.6,0,.9,0,.3,0,.6,0,.9,0,.3,0,.6,0,.9,0,.3,0,.6,0,.9,0,.3,0,.6,0,.9,0,.3,0,.6,0,.9"/>
    <path id="path53468" class="cls-2" d="M903.5,150.8H150.8"/>
    <g id="g55795" ns1:alignment="middle center" ns1:inkscapeversion="1.2.1" ns1:jacobian_sqrt="2.64583" ns1:pdfconverter="inkscape" ns1:preamble="/Users/vs498/Library/Application Support/org.inkscape.Inkscape/config/inkscape/extensions/textext/default_packages.tex" ns1:scale="7.5" ns1:stroke-to-path="0" ns1:texconverter="pdflatex" ns1:text="$$C$$" ns1:version="1.8.1">
      <g id="id-7a49547f-588b-4344-8a8c-c9a3b1d017e0">
        <g id="g55792">
          <path id="id-2dbc95f5-acf7-42f7-91e9-30ce21e15d6f" class="cls-22" d="M929.4,139.2c0,0,0-.3-.3-.3s-.1,0-.4.3l-1.8,2.1c-.3-.4-1.5-2.4-4.5-2.4-6,0-12,5.9-12,12.1s3.2,7.4,7.3,7.4,4.4-1.1,5.8-2.3c2.5-2.2,2.9-4.6,2.9-4.7,0-.3-.3-.3-.3-.3-.2,0-.3,0-.3.3-.3.8-.9,2.7-2.7,4.2-1.8,1.5-3.5,1.9-4.9,1.9-2.4,0-5.3-1.4-5.3-5.5s.5-5.9,3.2-9c1.6-1.9,4.2-3.2,6.6-3.2s4.3,2.1,4.3,5.2,0,1.1,0,1.4.3.3.4.3c.3,0,.3,0,.5-.5l1.7-6.8Z"/>
        </g>
      </g>
    </g>
    <g id="g62477" ns1:alignment="middle center" ns1:inkscapeversion="1.2.1" ns1:jacobian_sqrt="2.64583" ns1:pdfconverter="inkscape" ns1:preamble="/Users/vs498/Library/Application Support/org.inkscape.Inkscape/config/inkscape/extensions/textext/default_packages.tex" ns1:scale="7.5" ns1:stroke-to-path="0" ns1:texconverter="pdflatex" ns1:text="$$u$$" ns1:version="1.8.1">
      <g id="id-a51040f2-340c-4423-a1c4-72d5990d5357">
        <g id="g62474">
          <path id="id-74163584-4a95-49e0-8f80-a7da3031e658" class="cls-24" d="M70.6,104.6c.6,2.2,2.5,3.6,4.8,3.6s3.1-1.3,3.9-2.9c.9-1.9,1.6-5.2,1.6-5.3,0-.6-.4-.6-.6-.6-.6,0-.6.3-.8,1-.8,3-1.8,6.6-4,6.6s-1.7-.7-1.7-2.4.7-3.7,1.1-5.6l1.5-5.8c.2-.8.7-2.8.9-3.6.3-1.3.8-3.3.8-3.6,0-.9-.8-1.4-1.5-1.4s-1.7,0-2.1,1.8c-1,3.9-3.4,13.3-4,16.1,0,.3-2.2,4.5-6.1,4.5s-3.3-2.4-3.3-4.4c0-3,1.5-7.2,2.9-10.9.7-1.7.9-2.4.9-3.4,0-2.3-1.7-4.4-4.4-4.4-5.1,0-7,7.8-7,8.2s.5.6.6.6c.6,0,.6-.2.8-1,1.3-4.6,3.4-6.6,5.5-6.6s1.3,0,1.3,1.8-.6,2.9-.9,3.6c-2,5.4-3.1,8.6-3.1,11.2,0,5.1,3.7,6.5,6.5,6.5s5.5-2.4,6.4-3.6Z"/>
        </g>
      </g>
    </g>
    <g id="g71308" ns1:alignment="middle center" ns1:inkscapeversion="1.2.1" ns1:jacobian_sqrt="2.64583" ns1:pdfconverter="inkscape" ns1:preamble="/Users/vs498/Library/Application Support/org.inkscape.Inkscape/config/inkscape/extensions/textext/default_packages.tex" ns1:scale="7.5" ns1:stroke-to-path="0" ns1:texconverter="pdflatex" ns1:text="$$\\sigma_z$$" ns1:version="1.8.1">
      <g id="id-ce585633-1f6c-4076-a207-210dfae641d1">
        <g id="g71301">
          <path id="id-549ce71a-087f-4469-bde2-7fd2658d2199" class="cls-22" d="M848.2,123.3c.5,0,1.9,0,1.9-1.3s-.8-.9-1.5-.9h-8.6c-5.7,0-9.9,6.2-9.9,10.7s2.2,6,5.7,6,9.4-4.5,9.4-10.3,0-2.5-1.2-4.1h4.1ZM835.9,136.9c-1.9,0-3.4-1.4-3.4-4.1s.4-4.2,1.8-6.4c1.6-2.6,3.8-3.1,5.1-3.1,3.1,0,3.4,2.5,3.4,3.7,0,1.8-.8,4.8-2,6.8-1.5,2.2-3.5,3.2-5,3.2Z"/>
        </g>
      </g>
      <g id="id-c27ba728-c25e-4797-8f32-7bc365708998">
        <g id="g71305">
          <path id="id-f30daa30-4585-41bd-bce5-514d2e96b1e8" class="cls-22" d="M854.7,140.7c.7-.7,1.2-1.2,3.4-3,.6-.4,2.5-2,3.3-2.7,1.6-1.6,2.6-2.9,2.6-3.2s-.3-.4-.4-.4c-.2,0-.4,0-.5.3-.8,1.2-1.4,1.6-2,1.6s-.7,0-1.5-.8c-.9-.9-1.5-1.1-2.1-1.1-2.1,0-3.5,2.3-3.5,3.1s.2.4.4.4c.4,0,.4,0,.5-.4.4-.9,1.9-1,2.3-1,.6,0,1.3.2,1.7.2,1.5.3,1.7.3,2.3.3-.6.8-1.1,1.2-3.7,3.2-2.1,1.7-2.8,2.3-3.2,2.8-1.6,1.5-2.4,2.7-2.4,2.9s.4.3.5.3c.2,0,.3,0,.4-.2.7-1,1.5-1.6,2.4-1.6s.7,0,1.4.6c.8.8,1.4,1.2,2.2,1.2,2.8,0,4.5-3.2,4.5-4.1s-.3-.3-.4-.3c-.4,0-.4.1-.5.4-.5,1.3-2,1.9-3.3,1.9s-1.3-.2-1.9-.3c-1.2-.3-1.4-.3-1.9-.3s-.4,0-.6,0Z"/>
        </g>
      </g>
    </g>
    <path id="path8720-6" class="cls-8" d="M164.7,151.4h-26.7"/>
    <path id="path8655-2" class="cls-5" d="M69.8,393.4l.7-195.9" sodipodi:nodetypes="cc"/>
    <path id="path8655-7-8" class="cls-5" d="M70.3,202.3v-48.9" sodipodi:nodetypes="cc"/>
    <path id="path8720-6-5" class="cls-8" d="M84.3,151.9h-26.7"/>
    <path id="path8720-7-9" class="cls-8" d="M82.3,396.2h-26.7"/>
    <g id="g519" ns1:alignment="middle center" ns1:inkscapeversion="1.3-dev" ns1:jacobian_sqrt="2.64583" ns1:pdfconverter="inkscape" ns1:preamble="/Users/vs498/Library/Application Support/org.inkscape.Inkscape/config/inkscape/extensions/textext/default_packages.tex" ns1:scale="7.5" ns1:stroke-to-path="0" ns1:texconverter="pdflatex" ns1:text="$$H$$" ns1:version="1.8.2">
      <g id="id-806a364d-6003-4ac2-bb54-ffbedd8e3274">
        <g id="g516">
          <path id="id-f26747a3-e1a2-49bb-bce4-6a246fb552fd" class="cls-23" d="M47.4,254.7c.4-1.6.5-2,3.7-2s1.5,0,1.5-.9-.5-.5-.6-.5c-1.2,0-4.4.1-5.7.1s-4.4-.1-5.7-.1-.8,0-.8.9.4.5,1.2.5.9,0,1.7,0c.8.1,1.2.1,1.2.8s0,.2-.1.8l-2.6,10.7h-13.5l2.6-10.4c.3-1.6.5-2,3.7-2s1.5,0,1.5-.9-.5-.5-.6-.5c-1.2,0-4.4.1-5.7.1s-4.4-.1-5.7-.1-.8,0-.8.9.4.5,1.2.5.9,0,1.7,0c.8.1,1.2.1,1.2.8s0,.3-.1.8l-6,23.7c-.4,1.7-.5,2.1-4,2.1s-1.2,0-1.2.9.6.5.6.5c1.2,0,4.4-.1,5.6-.1s1.9,0,2.8,0,1.9,0,2.8,0,.9,0,.9-.9-.4-.5-1.2-.5c-1.7,0-2.8,0-2.8-.8s0-.5,0-.8l3-12.1h13.4c-1.8,7.3-2.8,11.6-3,12.2-.4,1.5-1.2,1.5-4,1.5s-1,0-1,.9.6.5.6.5c1.2,0,4.4-.1,5.6-.1s1.9,0,2.8,0,1.9,0,2.8,0,.9,0,.9-.9-.4-.5-1.2-.5c-1.6,0-2.8,0-2.8-.8s0-.5.1-.8l6-23.9Z"/>
        </g>
      </g>
    </g>
    <g id="g887" ns1:alignment="middle center" ns1:inkscapeversion="1.3-dev" ns1:jacobian_sqrt="2.64583" ns1:pdfconverter="inkscape" ns1:preamble="/Users/vs498/Library/Application Support/org.inkscape.Inkscape/config/inkscape/extensions/textext/default_packages.tex" ns1:scale="7.5" ns1:stroke-to-path="0" ns1:texconverter="pdflatex" ns1:text="$$\\Delta h$$" ns1:version="1.8.2">
      <g id="id-bd248c0a-741c-4318-942f-cc619fdbfe41">
        <g id="g880">
          <path id="id-2d7277dd-84f0-45bb-8ad3-bc7afe7c0b69" class="cls-23" d="M102.2,160.9c-.3-.6-.4-.8-1.2-.8s-.8.2-1.1.8l-15.1,30.2c-.2.4-.2.5-.2.6,0,.3.3.3,1,.3h31c.7,0,1,0,1-.3s0-.1-.2-.6l-15.1-30.2ZM99.6,164.6l12,24.1h-24.1l12-24.1Z"/>
        </g>
      </g>
      <g id="id-0e89b38c-845c-452e-930f-79c9da0ab7c5">
        <g id="g884">
          <path id="id-9de060c7-f88b-47e3-ac9f-9cdaf9785eb7" class="cls-23" d="M132.4,161.6s0-.5-.6-.5c-1,0-4.3.3-5.5.5-.3,0-.8,0-.8.8s.4.6,1,.6c2.2,0,2.2.3,2.2.8v.9c-.1,0-6.6,25.7-6.6,25.7-.2.6-.2.7-.2,1,0,1,.9,1.3,1.3,1.3.7,0,1.4-.6,1.6-1.2l.8-3.4,1-4c.3-1,.6-2,.8-3,0-.3.5-1.7.5-2,.1-.4,1.5-2.9,3.1-4.1,1-.7,2.3-1.5,4.3-1.5s2.4,1.5,2.4,3.1c0,2.4-1.7,7.3-2.7,10-.3,1-.6,1.5-.6,2.4,0,2.1,1.6,3.6,3.7,3.6,4.2,0,5.8-6.5,5.8-6.9s-.3-.5-.5-.5c-.5,0-.5.1-.7.8-.6,2.4-2.1,5.5-4.5,5.5s-1-.4-1-1.5.3-2.2.8-3.1c.7-2,2.7-7.3,2.7-9.9s-1.7-4.8-5.1-4.8-5,1.4-6.6,3.4l3.5-14.2Z"/>
        </g>
      </g>
    </g>
  </g>
  <g>
    <line class="cls-21" x1="820.3" y1="113.3" x2="821.5" y2="150.8"/>
    <g>
      <line class="cls-13" x1="820.4" y1="115.2" x2="821.4" y2="148.9"/>
      <polygon class="cls-22" points="813.2 121.4 814.6 122.6 820.4 115.9 826.6 122.3 827.9 121 820.3 113.3 813.2 121.4"/>
      <polygon class="cls-22" points="813.9 143.2 815.1 141.9 821.4 148.2 827.2 141.5 828.6 142.7 821.5 150.8 813.9 143.2"/>
    </g>
  </g>
  <g>
    <line class="cls-21" x1="820.3" y1="153.1" x2="863.9" y2="178.9"/>
    <g>
      <line class="cls-13" x1="822" y1="154.1" x2="862.3" y2="177.9"/>
      <polygon class="cls-22" points="823.3 163.4 825.1 162.9 822.5 154.4 831.2 152.5 830.8 150.8 820.3 153.1 823.3 163.4"/>
      <polygon class="cls-22" points="853.4 181.2 853 179.5 861.7 177.6 859.1 169.1 860.9 168.5 863.9 178.9 853.4 181.2"/>
    </g>
  </g>
  <polygon class="cls-19" points="740.9 164.7 740.9 164.7 740.9 164.7 740.9 164.7 740.9 164.7 740.9 164.7 740.9 164.7 740.9 164.7 740.9 164.7 740.9 164.7 740.9 164.7 740.9 164.7 740.9 164.7 740.9 164.7 740.9 164.7 740.9 164.7 740.9 164.7 740.9 164.7 740.9 164.7 740.9 164.7 740.9 164.7 740.9 164.7 740.9 164.7 740.9 164.7 740.9 164.7 740.9 164.7 740.9 164.7 740.9 164.7 740.9 164.7 740.9 164.7 740.9 164.7 740.9 164.7 740.9 164.7 740.9 164.7 740.9 164.7 740.9 164.7 740.9 164.7 740.9 164.7 740.9 164.7 740.9 164.7 740.9 164.7 740.9 164.7 740.9 164.7 740.9 164.7 740.9 164.7 740.9 164.7 740.9 164.7 740.9 164.7 740.9 164.7 740.9 164.7 740.9 164.7 740.9 164.7 740.9 164.7 740.9 164.7 740.9 164.7 740.9 164.7 740.9 164.7 740.9 164.7 740.9 164.7 740.9 164.7 740.9 164.7 740.9 164.7 740.9 164.7 740.9 164.7 740.9 164.7 740.9 164.7 740.9 164.7 740.9 164.7 740.9 164.7 740.9 164.7 740.9 164.7 740.9 164.7 740.9 164.7 740.9 164.7 740.9 164.7 740.9 164.7 740.9 164.7 740.9 164.7 740.9 164.7 740.9 164.7 740.9 164.7 740.9 164.7 740.9 164.7 740.9 164.7 740.9 164.7 740.9 164.7 740.9 164.7"/>
  <polygon class="cls-18" points="825.1 183.4 825.1 183.4 825.1 183.4 825.1 183.4 825.1 183.4 825.1 183.4 825.1 183.4 825.1 183.4 825.1 183.4 825.1 183.4 825.1 183.4 825.1 183.4 825.1 183.4 825.1 183.4 825.1 183.4 825.1 183.4 825.1 183.4 825.1 183.4 825.1 183.4 825.1 183.4 825.1 183.4 825.1 183.4 825.1 183.4 825.1 183.4 825.1 183.4 825.1 183.4 825.1 183.4 825.1 183.4 825.1 183.4 825.1 183.4 825.1 183.4 825.1 183.4 825.1 183.4 825.1 183.4 825.1 183.4 825.1 183.4 825.1 183.4 825.1 183.4 825.1 183.4 825.1 183.4 825.1 183.4 825.1 183.4 825.1 183.4 825.1 183.4 825.1 183.4 825.1 183.4 825.1 183.4 825.1 183.4 825.1 183.4 825.1 183.4 825.1 183.4 825.1 183.4 825.1 183.4 825.1 183.4 825.1 183.4 825.1 183.4 825.1 183.4 825.1 183.4 825.1 183.4 825.1 183.4 825.1 183.4 825.1 183.4 825.1 183.4 825.1 183.4 825.1 183.4 825.1 183.4 825.1 183.4 825.1 183.4 825.1 183.4 825.1 183.4 825.1 183.4 825.1 183.4 825.1 183.4 825.1 183.4 825.1 183.4 825.1 183.4 825.1 183.4 825.1 183.4 825.1 183.4 825.1 183.4 825.1 183.4 825.1 183.4 825.1 183.4 825.1 183.4 825.1 183.4 825.1 183.4 825.1 183.4 825.1 183.4 825.1 183.4 825.1 183.4 825.1 183.4"/>
  <g class="cls-31">
    <path class="cls-18" d="M828.4,183.4h0Z"/>
    <rect class="cls-26" x="811.4" y="170.4" width="34" height="26"/>
    <path class="cls-22" d="M817.5,185.4c-1.8,0-3.2-1.3-3.2-3.9s.4-4,1.7-6.1c1.5-2.5,3.7-3,4.9-3,3,0,3.3,2.4,3.3,3.5,0,1.7-.7,4.6-1.9,6.5-1.4,2.1-3.3,3-4.7,3M829.3,172.4c.5,0,1.8,0,1.8-1.2s-.8-.9-1.4-.9h-8.2c-5.4,0-9.4,5.9-9.4,10.2s2.1,5.7,5.4,5.7,9-4.3,9-9.9,0-2.3-1.1-3.9h3.9Z"/>
    <path class="cls-22" d="M845.2,181.7c0-.4,0-.4,0-.6,0-.5-.4-.8-.8-.8s-.8.1-1,.6c0,.1-.3,1-.4,1.5l-.5,2.1c-.1.6-.9,3.8-1,4,0,0-1.1,2.2-3.1,2.2s-1.7-1.6-1.7-2.1c0-1.4.6-2.9,1.3-4.9.3-.8.4-1.1.4-1.5,0-1.2-1-2.1-2.4-2.1-2.5,0-3.7,3.4-3.7,3.8s.4.3.4.3c.4,0,.4-.1.5-.4.6-2.1,1.7-3.1,2.7-3.1s.6.3.6.9-.2,1.1-.4,1.5c-1.2,3.1-1.5,4-1.5,5.1s0,1.6,1,2.4c.8.7,1.8.8,2.5.8,1,0,1.9-.4,2.7-1.1-.3,1.4-.6,2.4-1.7,3.7-.7.8-1.7,1.6-3,1.6s-1.4,0-1.9-.8c1.4-.1,1.4-1.4,1.4-1.4,0-.8-.7-1-1-1-.6,0-1.5.5-1.5,1.7s1.2,2.2,3,2.2c2.5,0,5.6-2,6.4-5.1l2.4-9.5"/>
  </g>
  <line class="cls-10" x1="858" y1="187.2" x2="869.9" y2="170.6"/>
</svg>