<?xml version="1.0" encoding="utf-8"?>
<svg xmlns="http://www.w3.org/2000/svg" xmlns:xlink="http://www.w3.org/1999/xlink" width="528" height="336" viewBox="0 0 2112 1344">
<defs>
  <clipPath id="clip400">
    <rect x="0" y="0" width="2112" height="1344"/>
  </clipPath>
</defs>
<path clip-path="url(#clip400)" d="M0 1344 L2112 1344 L2112 2.13163e-14 L0 2.13163e-14  Z" fill="#ffffff" fill-rule="evenodd" fill-opacity="1"/>
<defs>
  <clipPath id="clip401">
    <rect x="422" y="0" width="1479" height="1344"/>
  </clipPath>
</defs>
<path clip-path="url(#clip400)" d="M169.135 1222.85 L2064.76 1222.85 L2064.76 47.2441 L169.135 47.2441  Z" fill="#ffffff" fill-rule="evenodd" fill-opacity="1"/>
<defs>
  <clipPath id="clip402">
    <rect x="169" y="47" width="1897" height="1177"/>
  </clipPath>
</defs>
<polyline clip-path="url(#clip402)" style="stroke:#000000; stroke-linecap:round; stroke-linejoin:round; stroke-width:2; stroke-opacity:0.1; fill:none" points="416.372,1222.85 416.372,47.2441 "/>
<polyline clip-path="url(#clip402)" style="stroke:#000000; stroke-linecap:round; stroke-linejoin:round; stroke-width:2; stroke-opacity:0.1; fill:none" points="702.32,1222.85 702.32,47.2441 "/>
<polyline clip-path="url(#clip402)" style="stroke:#000000; stroke-linecap:round; stroke-linejoin:round; stroke-width:2; stroke-opacity:0.1; fill:none" points="988.269,1222.85 988.269,47.2441 "/>
<polyline clip-path="url(#clip402)" style="stroke:#000000; stroke-linecap:round; stroke-linejoin:round; stroke-width:2; stroke-opacity:0.1; fill:none" points="1274.22,1222.85 1274.22,47.2441 "/>
<polyline clip-path="url(#clip402)" style="stroke:#000000; stroke-linecap:round; stroke-linejoin:round; stroke-width:2; stroke-opacity:0.1; fill:none" points="1560.17,1222.85 1560.17,47.2441 "/>
<polyline clip-path="url(#clip402)" style="stroke:#000000; stroke-linecap:round; stroke-linejoin:round; stroke-width:2; stroke-opacity:0.1; fill:none" points="1846.11,1222.85 1846.11,47.2441 "/>
<polyline clip-path="url(#clip402)" style="stroke:#000000; stroke-linecap:round; stroke-linejoin:round; stroke-width:2; stroke-opacity:0.1; fill:none" points="169.135,1222.85 2064.76,1222.85 "/>
<polyline clip-path="url(#clip402)" style="stroke:#000000; stroke-linecap:round; stroke-linejoin:round; stroke-width:2; stroke-opacity:0.1; fill:none" points="169.135,969.49 2064.76,969.49 "/>
<polyline clip-path="url(#clip402)" style="stroke:#000000; stroke-linecap:round; stroke-linejoin:round; stroke-width:2; stroke-opacity:0.1; fill:none" points="169.135,716.126 2064.76,716.126 "/>
<polyline clip-path="url(#clip402)" style="stroke:#000000; stroke-linecap:round; stroke-linejoin:round; stroke-width:2; stroke-opacity:0.1; fill:none" points="169.135,462.761 2064.76,462.761 "/>
<polyline clip-path="url(#clip402)" style="stroke:#000000; stroke-linecap:round; stroke-linejoin:round; stroke-width:2; stroke-opacity:0.1; fill:none" points="169.135,209.397 2064.76,209.397 "/>
<polyline clip-path="url(#clip400)" style="stroke:#000000; stroke-linecap:round; stroke-linejoin:round; stroke-width:4; stroke-opacity:1; fill:none" points="169.135,1222.85 2064.76,1222.85 "/>
<polyline clip-path="url(#clip400)" style="stroke:#000000; stroke-linecap:round; stroke-linejoin:round; stroke-width:4; stroke-opacity:1; fill:none" points="416.372,1222.85 416.372,1203.96 "/>
<polyline clip-path="url(#clip400)" style="stroke:#000000; stroke-linecap:round; stroke-linejoin:round; stroke-width:4; stroke-opacity:1; fill:none" points="702.32,1222.85 702.32,1203.96 "/>
<polyline clip-path="url(#clip400)" style="stroke:#000000; stroke-linecap:round; stroke-linejoin:round; stroke-width:4; stroke-opacity:1; fill:none" points="988.269,1222.85 988.269,1203.96 "/>
<polyline clip-path="url(#clip400)" style="stroke:#000000; stroke-linecap:round; stroke-linejoin:round; stroke-width:4; stroke-opacity:1; fill:none" points="1274.22,1222.85 1274.22,1203.96 "/>
<polyline clip-path="url(#clip400)" style="stroke:#000000; stroke-linecap:round; stroke-linejoin:round; stroke-width:4; stroke-opacity:1; fill:none" points="1560.17,1222.85 1560.17,1203.96 "/>
<polyline clip-path="url(#clip400)" style="stroke:#000000; stroke-linecap:round; stroke-linejoin:round; stroke-width:4; stroke-opacity:1; fill:none" points="1846.11,1222.85 1846.11,1203.96 "/>
<path clip-path="url(#clip400)" d="M308.189 1294.67 L315.828 1294.67 L315.828 1268.31 L307.518 1269.98 L307.518 1265.72 L315.782 1264.05 L320.458 1264.05 L320.458 1294.67 L328.097 1294.67 L328.097 1298.61 L308.189 1298.61 L308.189 1294.67 Z" fill="#000000" fill-rule="nonzero" fill-opacity="1" /><path clip-path="url(#clip400)" d="M337.541 1292.73 L342.425 1292.73 L342.425 1298.61 L337.541 1298.61 L337.541 1292.73 Z" fill="#000000" fill-rule="nonzero" fill-opacity="1" /><path clip-path="url(#clip400)" d="M352.657 1264.05 L371.013 1264.05 L371.013 1267.99 L356.939 1267.99 L356.939 1276.46 Q357.958 1276.11 358.976 1275.95 Q359.995 1275.76 361.013 1275.76 Q366.8 1275.76 370.18 1278.93 Q373.559 1282.11 373.559 1287.52 Q373.559 1293.1 370.087 1296.2 Q366.615 1299.28 360.296 1299.28 Q358.12 1299.28 355.851 1298.91 Q353.606 1298.54 351.198 1297.8 L351.198 1293.1 Q353.282 1294.23 355.504 1294.79 Q357.726 1295.35 360.203 1295.35 Q364.208 1295.35 366.545 1293.24 Q368.883 1291.13 368.883 1287.52 Q368.883 1283.91 366.545 1281.8 Q364.208 1279.7 360.203 1279.7 Q358.328 1279.7 356.453 1280.11 Q354.601 1280.53 352.657 1281.41 L352.657 1264.05 Z" fill="#000000" fill-rule="nonzero" fill-opacity="1" /><path clip-path="url(#clip400)" d="M392.772 1267.13 Q389.161 1267.13 387.332 1270.69 Q385.527 1274.24 385.527 1281.36 Q385.527 1288.47 387.332 1292.04 Q389.161 1295.58 392.772 1295.58 Q396.406 1295.58 398.212 1292.04 Q400.041 1288.47 400.041 1281.36 Q400.041 1274.24 398.212 1270.69 Q396.406 1267.13 392.772 1267.13 M392.772 1263.42 Q398.582 1263.42 401.638 1268.03 Q404.717 1272.61 404.717 1281.36 Q404.717 1290.09 401.638 1294.7 Q398.582 1299.28 392.772 1299.28 Q386.962 1299.28 383.883 1294.7 Q380.828 1290.09 380.828 1281.36 Q380.828 1272.61 383.883 1268.03 Q386.962 1263.42 392.772 1263.42 Z" fill="#000000" fill-rule="nonzero" fill-opacity="1" /><path clip-path="url(#clip400)" d="M441.105 1273.15 L430.527 1283.77 L441.105 1294.35 L438.351 1297.15 L427.726 1286.53 L417.101 1297.15 L414.369 1294.35 L424.925 1283.77 L414.369 1273.15 L417.101 1270.35 L427.726 1280.97 L438.351 1270.35 L441.105 1273.15 Z" fill="#000000" fill-rule="nonzero" fill-opacity="1" /><path clip-path="url(#clip400)" d="M453.466 1294.67 L461.105 1294.67 L461.105 1268.31 L452.795 1269.98 L452.795 1265.72 L461.059 1264.05 L465.735 1264.05 L465.735 1294.67 L473.374 1294.67 L473.374 1298.61 L453.466 1298.61 L453.466 1294.67 Z" fill="#000000" fill-rule="nonzero" fill-opacity="1" /><path clip-path="url(#clip400)" d="M492.818 1267.13 Q489.207 1267.13 487.378 1270.69 Q485.573 1274.24 485.573 1281.36 Q485.573 1288.47 487.378 1292.04 Q489.207 1295.58 492.818 1295.58 Q496.452 1295.58 498.258 1292.04 Q500.086 1288.47 500.086 1281.36 Q500.086 1274.24 498.258 1270.69 Q496.452 1267.13 492.818 1267.13 M492.818 1263.42 Q498.628 1263.42 501.684 1268.03 Q504.762 1272.61 504.762 1281.36 Q504.762 1290.09 501.684 1294.7 Q498.628 1299.28 492.818 1299.28 Q487.008 1299.28 483.929 1294.7 Q480.874 1290.09 480.874 1281.36 Q480.874 1272.61 483.929 1268.03 Q487.008 1263.42 492.818 1263.42 Z" fill="#000000" fill-rule="nonzero" fill-opacity="1" /><path clip-path="url(#clip400)" d="M517.439 1246.43 L507.847 1261.42 L517.439 1261.42 L517.439 1246.43 M516.442 1243.12 L521.219 1243.12 L521.219 1261.42 L525.225 1261.42 L525.225 1264.58 L521.219 1264.58 L521.219 1271.2 L517.439 1271.2 L517.439 1264.58 L504.762 1264.58 L504.762 1260.91 L516.442 1243.12 Z" fill="#000000" fill-rule="nonzero" fill-opacity="1" /><path clip-path="url(#clip400)" d="M598.223 1294.67 L614.543 1294.67 L614.543 1298.61 L592.598 1298.61 L592.598 1294.67 Q595.26 1291.92 599.844 1287.29 Q604.45 1282.64 605.631 1281.3 Q607.876 1278.77 608.756 1277.04 Q609.659 1275.28 609.659 1273.59 Q609.659 1270.83 607.714 1269.1 Q605.793 1267.36 602.691 1267.36 Q600.492 1267.36 598.038 1268.12 Q595.608 1268.89 592.83 1270.44 L592.83 1265.72 Q595.654 1264.58 598.108 1264 Q600.561 1263.42 602.598 1263.42 Q607.969 1263.42 611.163 1266.11 Q614.358 1268.8 614.358 1273.29 Q614.358 1275.42 613.547 1277.34 Q612.76 1279.24 610.654 1281.83 Q610.075 1282.5 606.973 1285.72 Q603.872 1288.91 598.223 1294.67 Z" fill="#000000" fill-rule="nonzero" fill-opacity="1" /><path clip-path="url(#clip400)" d="M624.358 1292.73 L629.242 1292.73 L629.242 1298.61 L624.358 1298.61 L624.358 1292.73 Z" fill="#000000" fill-rule="nonzero" fill-opacity="1" /><path clip-path="url(#clip400)" d="M649.427 1267.13 Q645.816 1267.13 643.987 1270.69 Q642.182 1274.24 642.182 1281.36 Q642.182 1288.47 643.987 1292.04 Q645.816 1295.58 649.427 1295.58 Q653.061 1295.58 654.867 1292.04 Q656.695 1288.47 656.695 1281.36 Q656.695 1274.24 654.867 1270.69 Q653.061 1267.13 649.427 1267.13 M649.427 1263.42 Q655.237 1263.42 658.293 1268.03 Q661.371 1272.61 661.371 1281.36 Q661.371 1290.09 658.293 1294.7 Q655.237 1299.28 649.427 1299.28 Q643.617 1299.28 640.538 1294.7 Q637.482 1290.09 637.482 1281.36 Q637.482 1272.61 640.538 1268.03 Q643.617 1263.42 649.427 1263.42 Z" fill="#000000" fill-rule="nonzero" fill-opacity="1" /><path clip-path="url(#clip400)" d="M679.589 1267.13 Q675.978 1267.13 674.149 1270.69 Q672.343 1274.24 672.343 1281.36 Q672.343 1288.47 674.149 1292.04 Q675.978 1295.58 679.589 1295.58 Q683.223 1295.58 685.028 1292.04 Q686.857 1288.47 686.857 1281.36 Q686.857 1274.24 685.028 1270.69 Q683.223 1267.13 679.589 1267.13 M679.589 1263.42 Q685.399 1263.42 688.454 1268.03 Q691.533 1272.61 691.533 1281.36 Q691.533 1290.09 688.454 1294.7 Q685.399 1299.28 679.589 1299.28 Q673.779 1299.28 670.7 1294.7 Q667.644 1290.09 667.644 1281.36 Q667.644 1272.61 670.7 1268.03 Q673.779 1263.42 679.589 1263.42 Z" fill="#000000" fill-rule="nonzero" fill-opacity="1" /><path clip-path="url(#clip400)" d="M727.922 1273.15 L717.343 1283.77 L727.922 1294.35 L725.167 1297.15 L714.542 1286.53 L703.917 1297.15 L701.186 1294.35 L711.741 1283.77 L701.186 1273.15 L703.917 1270.35 L714.542 1280.97 L725.167 1270.35 L727.922 1273.15 Z" fill="#000000" fill-rule="nonzero" fill-opacity="1" /><path clip-path="url(#clip400)" d="M740.283 1294.67 L747.922 1294.67 L747.922 1268.31 L739.612 1269.98 L739.612 1265.72 L747.875 1264.05 L752.551 1264.05 L752.551 1294.67 L760.19 1294.67 L760.19 1298.61 L740.283 1298.61 L740.283 1294.67 Z" fill="#000000" fill-rule="nonzero" fill-opacity="1" /><path clip-path="url(#clip400)" d="M779.634 1267.13 Q776.023 1267.13 774.195 1270.69 Q772.389 1274.24 772.389 1281.36 Q772.389 1288.47 774.195 1292.04 Q776.023 1295.58 779.634 1295.58 Q783.269 1295.58 785.074 1292.04 Q786.903 1288.47 786.903 1281.36 Q786.903 1274.24 785.074 1270.69 Q783.269 1267.13 779.634 1267.13 M779.634 1263.42 Q785.445 1263.42 788.5 1268.03 Q791.579 1272.61 791.579 1281.36 Q791.579 1290.09 788.5 1294.7 Q785.445 1299.28 779.634 1299.28 Q773.824 1299.28 770.746 1294.7 Q767.69 1290.09 767.69 1281.36 Q767.69 1272.61 770.746 1268.03 Q773.824 1263.42 779.634 1263.42 Z" fill="#000000" fill-rule="nonzero" fill-opacity="1" /><path clip-path="url(#clip400)" d="M804.255 1246.43 L794.663 1261.42 L804.255 1261.42 L804.255 1246.43 M803.258 1243.12 L808.036 1243.12 L808.036 1261.42 L812.042 1261.42 L812.042 1264.58 L808.036 1264.58 L808.036 1271.2 L804.255 1271.2 L804.255 1264.58 L791.579 1264.58 L791.579 1260.91 L803.258 1243.12 Z" fill="#000000" fill-rule="nonzero" fill-opacity="1" /><path clip-path="url(#clip400)" d="M884.172 1294.67 L900.491 1294.67 L900.491 1298.61 L878.547 1298.61 L878.547 1294.67 Q881.209 1291.92 885.792 1287.29 Q890.399 1282.64 891.579 1281.3 Q893.825 1278.77 894.704 1277.04 Q895.607 1275.28 895.607 1273.59 Q895.607 1270.83 893.663 1269.1 Q891.741 1267.36 888.639 1267.36 Q886.44 1267.36 883.987 1268.12 Q881.556 1268.89 878.778 1270.44 L878.778 1265.72 Q881.602 1264.58 884.056 1264 Q886.51 1263.42 888.547 1263.42 Q893.917 1263.42 897.112 1266.11 Q900.306 1268.8 900.306 1273.29 Q900.306 1275.42 899.496 1277.34 Q898.709 1279.24 896.602 1281.83 Q896.024 1282.5 892.922 1285.72 Q889.82 1288.91 884.172 1294.67 Z" fill="#000000" fill-rule="nonzero" fill-opacity="1" /><path clip-path="url(#clip400)" d="M910.306 1292.73 L915.19 1292.73 L915.19 1298.61 L910.306 1298.61 L910.306 1292.73 Z" fill="#000000" fill-rule="nonzero" fill-opacity="1" /><path clip-path="url(#clip400)" d="M925.422 1264.05 L943.778 1264.05 L943.778 1267.99 L929.704 1267.99 L929.704 1276.46 Q930.723 1276.11 931.741 1275.95 Q932.76 1275.76 933.778 1275.76 Q939.565 1275.76 942.945 1278.93 Q946.324 1282.11 946.324 1287.52 Q946.324 1293.1 942.852 1296.2 Q939.38 1299.28 933.061 1299.28 Q930.885 1299.28 928.616 1298.91 Q926.371 1298.54 923.963 1297.8 L923.963 1293.1 Q926.047 1294.23 928.269 1294.79 Q930.491 1295.35 932.968 1295.35 Q936.973 1295.35 939.31 1293.24 Q941.648 1291.13 941.648 1287.52 Q941.648 1283.91 939.31 1281.8 Q936.973 1279.7 932.968 1279.7 Q931.093 1279.7 929.218 1280.11 Q927.366 1280.53 925.422 1281.41 L925.422 1264.05 Z" fill="#000000" fill-rule="nonzero" fill-opacity="1" /><path clip-path="url(#clip400)" d="M965.537 1267.13 Q961.926 1267.13 960.097 1270.69 Q958.292 1274.24 958.292 1281.36 Q958.292 1288.47 960.097 1292.04 Q961.926 1295.58 965.537 1295.58 Q969.171 1295.58 970.977 1292.04 Q972.806 1288.47 972.806 1281.36 Q972.806 1274.24 970.977 1270.69 Q969.171 1267.13 965.537 1267.13 M965.537 1263.42 Q971.347 1263.42 974.403 1268.03 Q977.482 1272.61 977.482 1281.36 Q977.482 1290.09 974.403 1294.7 Q971.347 1299.28 965.537 1299.28 Q959.727 1299.28 956.648 1294.7 Q953.593 1290.09 953.593 1281.36 Q953.593 1272.61 956.648 1268.03 Q959.727 1263.42 965.537 1263.42 Z" fill="#000000" fill-rule="nonzero" fill-opacity="1" /><path clip-path="url(#clip400)" d="M1013.87 1273.15 L1003.29 1283.77 L1013.87 1294.35 L1011.12 1297.15 L1000.49 1286.53 L989.866 1297.15 L987.134 1294.35 L997.69 1283.77 L987.134 1273.15 L989.866 1270.35 L1000.49 1280.97 L1011.12 1270.35 L1013.87 1273.15 Z" fill="#000000" fill-rule="nonzero" fill-opacity="1" /><path clip-path="url(#clip400)" d="M1026.23 1294.67 L1033.87 1294.67 L1033.87 1268.31 L1025.56 1269.98 L1025.56 1265.72 L1033.82 1264.05 L1038.5 1264.05 L1038.5 1294.67 L1046.14 1294.67 L1046.14 1298.61 L1026.23 1298.61 L1026.23 1294.67 Z" fill="#000000" fill-rule="nonzero" fill-opacity="1" /><path clip-path="url(#clip400)" d="M1065.58 1267.13 Q1061.97 1267.13 1060.14 1270.69 Q1058.34 1274.24 1058.34 1281.36 Q1058.34 1288.47 1060.14 1292.04 Q1061.97 1295.58 1065.58 1295.58 Q1069.22 1295.58 1071.02 1292.04 Q1072.85 1288.47 1072.85 1281.36 Q1072.85 1274.24 1071.02 1270.69 Q1069.22 1267.13 1065.58 1267.13 M1065.58 1263.42 Q1071.39 1263.42 1074.45 1268.03 Q1077.53 1272.61 1077.53 1281.36 Q1077.53 1290.09 1074.45 1294.7 Q1071.39 1299.28 1065.58 1299.28 Q1059.77 1299.28 1056.69 1294.7 Q1053.64 1290.09 1053.64 1281.36 Q1053.64 1272.61 1056.69 1268.03 Q1059.77 1263.42 1065.58 1263.42 Z" fill="#000000" fill-rule="nonzero" fill-opacity="1" /><path clip-path="url(#clip400)" d="M1090.2 1246.43 L1080.61 1261.42 L1090.2 1261.42 L1090.2 1246.43 M1089.21 1243.12 L1093.98 1243.12 L1093.98 1261.42 L1097.99 1261.42 L1097.99 1264.58 L1093.98 1264.58 L1093.98 1271.2 L1090.2 1271.2 L1090.2 1264.58 L1077.53 1264.58 L1077.53 1260.91 L1089.21 1243.12 Z" fill="#000000" fill-rule="nonzero" fill-opacity="1" /><path clip-path="url(#clip400)" d="M1180.19 1279.98 Q1183.55 1280.69 1185.42 1282.96 Q1187.32 1285.23 1187.32 1288.56 Q1187.32 1293.68 1183.8 1296.48 Q1180.28 1299.28 1173.8 1299.28 Q1171.62 1299.28 1169.31 1298.84 Q1167.02 1298.42 1164.56 1297.57 L1164.56 1293.05 Q1166.51 1294.19 1168.82 1294.77 Q1171.14 1295.35 1173.66 1295.35 Q1178.06 1295.35 1180.35 1293.61 Q1182.67 1291.87 1182.67 1288.56 Q1182.67 1285.51 1180.51 1283.8 Q1178.38 1282.06 1174.56 1282.06 L1170.54 1282.06 L1170.54 1278.22 L1174.75 1278.22 Q1178.2 1278.22 1180.03 1276.85 Q1181.86 1275.46 1181.86 1272.87 Q1181.86 1270.21 1179.96 1268.8 Q1178.08 1267.36 1174.56 1267.36 Q1172.64 1267.36 1170.44 1267.78 Q1168.25 1268.19 1165.61 1269.07 L1165.61 1264.91 Q1168.27 1264.17 1170.58 1263.8 Q1172.92 1263.42 1174.98 1263.42 Q1180.31 1263.42 1183.41 1265.86 Q1186.51 1268.26 1186.51 1272.38 Q1186.51 1275.25 1184.87 1277.24 Q1183.22 1279.21 1180.19 1279.98 Z" fill="#000000" fill-rule="nonzero" fill-opacity="1" /><path clip-path="url(#clip400)" d="M1196.19 1292.73 L1201.07 1292.73 L1201.07 1298.61 L1196.19 1298.61 L1196.19 1292.73 Z" fill="#000000" fill-rule="nonzero" fill-opacity="1" /><path clip-path="url(#clip400)" d="M1221.25 1267.13 Q1217.64 1267.13 1215.81 1270.69 Q1214.01 1274.24 1214.01 1281.36 Q1214.01 1288.47 1215.81 1292.04 Q1217.64 1295.58 1221.25 1295.58 Q1224.89 1295.58 1226.69 1292.04 Q1228.52 1288.47 1228.52 1281.36 Q1228.52 1274.24 1226.69 1270.69 Q1224.89 1267.13 1221.25 1267.13 M1221.25 1263.42 Q1227.06 1263.42 1230.12 1268.03 Q1233.2 1272.61 1233.2 1281.36 Q1233.2 1290.09 1230.12 1294.7 Q1227.06 1299.28 1221.25 1299.28 Q1215.44 1299.28 1212.37 1294.7 Q1209.31 1290.09 1209.31 1281.36 Q1209.31 1272.61 1212.37 1268.03 Q1215.44 1263.42 1221.25 1263.42 Z" fill="#000000" fill-rule="nonzero" fill-opacity="1" /><path clip-path="url(#clip400)" d="M1251.42 1267.13 Q1247.81 1267.13 1245.98 1270.69 Q1244.17 1274.24 1244.17 1281.36 Q1244.17 1288.47 1245.98 1292.04 Q1247.81 1295.58 1251.42 1295.58 Q1255.05 1295.58 1256.86 1292.04 Q1258.68 1288.47 1258.68 1281.36 Q1258.68 1274.24 1256.86 1270.69 Q1255.05 1267.13 1251.42 1267.13 M1251.42 1263.42 Q1257.23 1263.42 1260.28 1268.03 Q1263.36 1272.61 1263.36 1281.36 Q1263.36 1290.09 1260.28 1294.7 Q1257.23 1299.28 1251.42 1299.28 Q1245.61 1299.28 1242.53 1294.7 Q1239.47 1290.09 1239.47 1281.36 Q1239.47 1272.61 1242.53 1268.03 Q1245.61 1263.42 1251.42 1263.42 Z" fill="#000000" fill-rule="nonzero" fill-opacity="1" /><path clip-path="url(#clip400)" d="M1299.75 1273.15 L1289.17 1283.77 L1299.75 1294.35 L1296.99 1297.15 L1286.37 1286.53 L1275.74 1297.15 L1273.01 1294.35 L1283.57 1283.77 L1273.01 1273.15 L1275.74 1270.35 L1286.37 1280.97 L1296.99 1270.35 L1299.75 1273.15 Z" fill="#000000" fill-rule="nonzero" fill-opacity="1" /><path clip-path="url(#clip400)" d="M1312.11 1294.67 L1319.75 1294.67 L1319.75 1268.31 L1311.44 1269.98 L1311.44 1265.72 L1319.7 1264.05 L1324.38 1264.05 L1324.38 1294.67 L1332.02 1294.67 L1332.02 1298.61 L1312.11 1298.61 L1312.11 1294.67 Z" fill="#000000" fill-rule="nonzero" fill-opacity="1" /><path clip-path="url(#clip400)" d="M1351.46 1267.13 Q1347.85 1267.13 1346.02 1270.69 Q1344.22 1274.24 1344.22 1281.36 Q1344.22 1288.47 1346.02 1292.04 Q1347.85 1295.58 1351.46 1295.58 Q1355.1 1295.58 1356.9 1292.04 Q1358.73 1288.47 1358.73 1281.36 Q1358.73 1274.24 1356.9 1270.69 Q1355.1 1267.13 1351.46 1267.13 M1351.46 1263.42 Q1357.27 1263.42 1360.33 1268.03 Q1363.41 1272.61 1363.41 1281.36 Q1363.41 1290.09 1360.33 1294.7 Q1357.27 1299.28 1351.46 1299.28 Q1345.65 1299.28 1342.57 1294.7 Q1339.52 1290.09 1339.52 1281.36 Q1339.52 1272.61 1342.57 1268.03 Q1345.65 1263.42 1351.46 1263.42 Z" fill="#000000" fill-rule="nonzero" fill-opacity="1" /><path clip-path="url(#clip400)" d="M1376.08 1246.43 L1366.49 1261.42 L1376.08 1261.42 L1376.08 1246.43 M1375.09 1243.12 L1379.86 1243.12 L1379.86 1261.42 L1383.87 1261.42 L1383.87 1264.58 L1379.86 1264.58 L1379.86 1271.2 L1376.08 1271.2 L1376.08 1264.58 L1363.41 1264.58 L1363.41 1260.91 L1375.09 1243.12 Z" fill="#000000" fill-rule="nonzero" fill-opacity="1" /><path clip-path="url(#clip400)" d="M1466.14 1279.98 Q1469.49 1280.69 1471.37 1282.96 Q1473.27 1285.23 1473.27 1288.56 Q1473.27 1293.68 1469.75 1296.48 Q1466.23 1299.28 1459.75 1299.28 Q1457.57 1299.28 1455.26 1298.84 Q1452.97 1298.42 1450.51 1297.57 L1450.51 1293.05 Q1452.46 1294.19 1454.77 1294.77 Q1457.09 1295.35 1459.61 1295.35 Q1464.01 1295.35 1466.3 1293.61 Q1468.62 1291.87 1468.62 1288.56 Q1468.62 1285.51 1466.46 1283.8 Q1464.33 1282.06 1460.51 1282.06 L1456.49 1282.06 L1456.49 1278.22 L1460.7 1278.22 Q1464.15 1278.22 1465.98 1276.85 Q1467.8 1275.46 1467.8 1272.87 Q1467.8 1270.21 1465.91 1268.8 Q1464.03 1267.36 1460.51 1267.36 Q1458.59 1267.36 1456.39 1267.78 Q1454.19 1268.19 1451.55 1269.07 L1451.55 1264.91 Q1454.22 1264.17 1456.53 1263.8 Q1458.87 1263.42 1460.93 1263.42 Q1466.25 1263.42 1469.36 1265.86 Q1472.46 1268.26 1472.46 1272.38 Q1472.46 1275.25 1470.81 1277.24 Q1469.17 1279.21 1466.14 1279.98 Z" fill="#000000" fill-rule="nonzero" fill-opacity="1" /><path clip-path="url(#clip400)" d="M1482.13 1292.73 L1487.02 1292.73 L1487.02 1298.61 L1482.13 1298.61 L1482.13 1292.73 Z" fill="#000000" fill-rule="nonzero" fill-opacity="1" /><path clip-path="url(#clip400)" d="M1497.25 1264.05 L1515.61 1264.05 L1515.61 1267.99 L1501.53 1267.99 L1501.53 1276.46 Q1502.55 1276.11 1503.57 1275.95 Q1504.59 1275.76 1505.61 1275.76 Q1511.39 1275.76 1514.77 1278.93 Q1518.15 1282.11 1518.15 1287.52 Q1518.15 1293.1 1514.68 1296.2 Q1511.21 1299.28 1504.89 1299.28 Q1502.71 1299.28 1500.44 1298.91 Q1498.2 1298.54 1495.79 1297.8 L1495.79 1293.1 Q1497.87 1294.23 1500.1 1294.79 Q1502.32 1295.35 1504.8 1295.35 Q1508.8 1295.35 1511.14 1293.24 Q1513.48 1291.13 1513.48 1287.52 Q1513.48 1283.91 1511.14 1281.8 Q1508.8 1279.7 1504.8 1279.7 Q1502.92 1279.7 1501.05 1280.11 Q1499.19 1280.53 1497.25 1281.41 L1497.25 1264.05 Z" fill="#000000" fill-rule="nonzero" fill-opacity="1" /><path clip-path="url(#clip400)" d="M1537.36 1267.13 Q1533.75 1267.13 1531.92 1270.69 Q1530.12 1274.24 1530.12 1281.36 Q1530.12 1288.47 1531.92 1292.04 Q1533.75 1295.58 1537.36 1295.58 Q1541 1295.58 1542.8 1292.04 Q1544.63 1288.47 1544.63 1281.36 Q1544.63 1274.24 1542.8 1270.69 Q1541 1267.13 1537.36 1267.13 M1537.36 1263.42 Q1543.17 1263.42 1546.23 1268.03 Q1549.31 1272.61 1549.31 1281.36 Q1549.31 1290.09 1546.23 1294.7 Q1543.17 1299.28 1537.36 1299.28 Q1531.55 1299.28 1528.48 1294.7 Q1525.42 1290.09 1525.42 1281.36 Q1525.42 1272.61 1528.48 1268.03 Q1531.55 1263.42 1537.36 1263.42 Z" fill="#000000" fill-rule="nonzero" fill-opacity="1" /><path clip-path="url(#clip400)" d="M1585.7 1273.15 L1575.12 1283.77 L1585.7 1294.35 L1582.94 1297.15 L1572.32 1286.53 L1561.69 1297.15 L1558.96 1294.35 L1569.52 1283.77 L1558.96 1273.15 L1561.69 1270.35 L1572.32 1280.97 L1582.94 1270.35 L1585.7 1273.15 Z" fill="#000000" fill-rule="nonzero" fill-opacity="1" /><path clip-path="url(#clip400)" d="M1598.06 1294.67 L1605.7 1294.67 L1605.7 1268.31 L1597.39 1269.98 L1597.39 1265.72 L1605.65 1264.05 L1610.33 1264.05 L1610.33 1294.67 L1617.97 1294.67 L1617.97 1298.61 L1598.06 1298.61 L1598.06 1294.67 Z" fill="#000000" fill-rule="nonzero" fill-opacity="1" /><path clip-path="url(#clip400)" d="M1637.41 1267.13 Q1633.8 1267.13 1631.97 1270.69 Q1630.17 1274.24 1630.17 1281.36 Q1630.17 1288.47 1631.97 1292.04 Q1633.8 1295.58 1637.41 1295.58 Q1641.04 1295.58 1642.85 1292.04 Q1644.68 1288.47 1644.68 1281.36 Q1644.68 1274.24 1642.85 1270.69 Q1641.04 1267.13 1637.41 1267.13 M1637.41 1263.42 Q1643.22 1263.42 1646.28 1268.03 Q1649.35 1272.61 1649.35 1281.36 Q1649.35 1290.09 1646.28 1294.7 Q1643.22 1299.28 1637.41 1299.28 Q1631.6 1299.28 1628.52 1294.7 Q1625.47 1290.09 1625.47 1281.36 Q1625.47 1272.61 1628.52 1268.03 Q1631.6 1263.42 1637.41 1263.42 Z" fill="#000000" fill-rule="nonzero" fill-opacity="1" /><path clip-path="url(#clip400)" d="M1662.03 1246.43 L1652.44 1261.42 L1662.03 1261.42 L1662.03 1246.43 M1661.03 1243.12 L1665.81 1243.12 L1665.81 1261.42 L1669.82 1261.42 L1669.82 1264.58 L1665.81 1264.58 L1665.81 1271.2 L1662.03 1271.2 L1662.03 1264.58 L1649.35 1264.58 L1649.35 1260.91 L1661.03 1243.12 Z" fill="#000000" fill-rule="nonzero" fill-opacity="1" /><path clip-path="url(#clip400)" d="M1751.42 1268.12 L1739.61 1286.57 L1751.42 1286.57 L1751.42 1268.12 M1750.19 1264.05 L1756.07 1264.05 L1756.07 1286.57 L1761 1286.57 L1761 1290.46 L1756.07 1290.46 L1756.07 1298.61 L1751.42 1298.61 L1751.42 1290.46 L1735.81 1290.46 L1735.81 1285.95 L1750.19 1264.05 Z" fill="#000000" fill-rule="nonzero" fill-opacity="1" /><path clip-path="url(#clip400)" d="M1768.73 1292.73 L1773.61 1292.73 L1773.61 1298.61 L1768.73 1298.61 L1768.73 1292.73 Z" fill="#000000" fill-rule="nonzero" fill-opacity="1" /><path clip-path="url(#clip400)" d="M1793.8 1267.13 Q1790.19 1267.13 1788.36 1270.69 Q1786.55 1274.24 1786.55 1281.36 Q1786.55 1288.47 1788.36 1292.04 Q1790.19 1295.58 1793.8 1295.58 Q1797.43 1295.58 1799.24 1292.04 Q1801.07 1288.47 1801.07 1281.36 Q1801.07 1274.24 1799.24 1270.69 Q1797.43 1267.13 1793.8 1267.13 M1793.8 1263.42 Q1799.61 1263.42 1802.67 1268.03 Q1805.74 1272.61 1805.74 1281.36 Q1805.74 1290.09 1802.67 1294.7 Q1799.61 1299.28 1793.8 1299.28 Q1787.99 1299.28 1784.91 1294.7 Q1781.86 1290.09 1781.86 1281.36 Q1781.86 1272.61 1784.91 1268.03 Q1787.99 1263.42 1793.8 1263.42 Z" fill="#000000" fill-rule="nonzero" fill-opacity="1" /><path clip-path="url(#clip400)" d="M1823.96 1267.13 Q1820.35 1267.13 1818.52 1270.69 Q1816.72 1274.24 1816.72 1281.36 Q1816.72 1288.47 1818.52 1292.04 Q1820.35 1295.58 1823.96 1295.58 Q1827.6 1295.58 1829.4 1292.04 Q1831.23 1288.47 1831.23 1281.36 Q1831.23 1274.24 1829.4 1270.69 Q1827.6 1267.13 1823.96 1267.13 M1823.96 1263.42 Q1829.77 1263.42 1832.83 1268.03 Q1835.91 1272.61 1835.91 1281.36 Q1835.91 1290.09 1832.83 1294.7 Q1829.77 1299.28 1823.96 1299.28 Q1818.15 1299.28 1815.07 1294.7 Q1812.02 1290.09 1812.02 1281.36 Q1812.02 1272.61 1815.07 1268.03 Q1818.15 1263.42 1823.96 1263.42 Z" fill="#000000" fill-rule="nonzero" fill-opacity="1" /><path clip-path="url(#clip400)" d="M1872.29 1273.15 L1861.72 1283.77 L1872.29 1294.35 L1869.54 1297.15 L1858.91 1286.53 L1848.29 1297.15 L1845.56 1294.35 L1856.11 1283.77 L1845.56 1273.15 L1848.29 1270.35 L1858.91 1280.97 L1869.54 1270.35 L1872.29 1273.15 Z" fill="#000000" fill-rule="nonzero" fill-opacity="1" /><path clip-path="url(#clip400)" d="M1884.66 1294.67 L1892.29 1294.67 L1892.29 1268.31 L1883.98 1269.98 L1883.98 1265.72 L1892.25 1264.05 L1896.92 1264.05 L1896.92 1294.67 L1904.56 1294.67 L1904.56 1298.61 L1884.66 1298.61 L1884.66 1294.67 Z" fill="#000000" fill-rule="nonzero" fill-opacity="1" /><path clip-path="url(#clip400)" d="M1924.01 1267.13 Q1920.4 1267.13 1918.57 1270.69 Q1916.76 1274.24 1916.76 1281.36 Q1916.76 1288.47 1918.57 1292.04 Q1920.4 1295.58 1924.01 1295.58 Q1927.64 1295.58 1929.45 1292.04 Q1931.28 1288.47 1931.28 1281.36 Q1931.28 1274.24 1929.45 1270.69 Q1927.64 1267.13 1924.01 1267.13 M1924.01 1263.42 Q1929.82 1263.42 1932.87 1268.03 Q1935.95 1272.61 1935.95 1281.36 Q1935.95 1290.09 1932.87 1294.7 Q1929.82 1299.28 1924.01 1299.28 Q1918.2 1299.28 1915.12 1294.7 Q1912.06 1290.09 1912.06 1281.36 Q1912.06 1272.61 1915.12 1268.03 Q1918.2 1263.42 1924.01 1263.42 Z" fill="#000000" fill-rule="nonzero" fill-opacity="1" /><path clip-path="url(#clip400)" d="M1948.63 1246.43 L1939.04 1261.42 L1948.63 1261.42 L1948.63 1246.43 M1947.63 1243.12 L1952.41 1243.12 L1952.41 1261.42 L1956.41 1261.42 L1956.41 1264.58 L1952.41 1264.58 L1952.41 1271.2 L1948.63 1271.2 L1948.63 1264.58 L1935.95 1264.58 L1935.95 1260.91 L1947.63 1243.12 Z" fill="#000000" fill-rule="nonzero" fill-opacity="1" /><polyline clip-path="url(#clip400)" style="stroke:#000000; stroke-linecap:round; stroke-linejoin:round; stroke-width:4; stroke-opacity:1; fill:none" points="169.135,1222.85 169.135,47.2441 "/>
<polyline clip-path="url(#clip400)" style="stroke:#000000; stroke-linecap:round; stroke-linejoin:round; stroke-width:4; stroke-opacity:1; fill:none" points="169.135,1222.85 188.032,1222.85 "/>
<polyline clip-path="url(#clip400)" style="stroke:#000000; stroke-linecap:round; stroke-linejoin:round; stroke-width:4; stroke-opacity:1; fill:none" points="169.135,969.49 188.032,969.49 "/>
<polyline clip-path="url(#clip400)" style="stroke:#000000; stroke-linecap:round; stroke-linejoin:round; stroke-width:4; stroke-opacity:1; fill:none" points="169.135,716.126 188.032,716.126 "/>
<polyline clip-path="url(#clip400)" style="stroke:#000000; stroke-linecap:round; stroke-linejoin:round; stroke-width:4; stroke-opacity:1; fill:none" points="169.135,462.761 188.032,462.761 "/>
<polyline clip-path="url(#clip400)" style="stroke:#000000; stroke-linecap:round; stroke-linejoin:round; stroke-width:4; stroke-opacity:1; fill:none" points="169.135,209.397 188.032,209.397 "/>
<path clip-path="url(#clip400)" d="M125.51 1208.65 Q121.899 1208.65 120.071 1212.22 Q118.265 1215.76 118.265 1222.89 Q118.265 1230 120.071 1233.56 Q121.899 1237.1 125.51 1237.1 Q129.145 1237.1 130.95 1233.56 Q132.779 1230 132.779 1222.89 Q132.779 1215.76 130.95 1212.22 Q129.145 1208.65 125.51 1208.65 M125.51 1204.95 Q131.321 1204.95 134.376 1209.56 Q137.455 1214.14 137.455 1222.89 Q137.455 1231.62 134.376 1236.22 Q131.321 1240.81 125.51 1240.81 Q119.7 1240.81 116.622 1236.22 Q113.566 1231.62 113.566 1222.89 Q113.566 1214.14 116.622 1209.56 Q119.7 1204.95 125.51 1204.95 Z" fill="#000000" fill-rule="nonzero" fill-opacity="1" /><path clip-path="url(#clip400)" d="M55.9969 982.835 L63.6358 982.835 L63.6358 956.469 L55.3256 958.136 L55.3256 953.876 L63.5895 952.21 L68.2654 952.21 L68.2654 982.835 L75.9042 982.835 L75.9042 986.77 L55.9969 986.77 L55.9969 982.835 Z" fill="#000000" fill-rule="nonzero" fill-opacity="1" /><path clip-path="url(#clip400)" d="M95.3486 955.288 Q91.7375 955.288 89.9088 958.853 Q88.1032 962.395 88.1032 969.524 Q88.1032 976.631 89.9088 980.196 Q91.7375 983.737 95.3486 983.737 Q98.9828 983.737 100.788 980.196 Q102.617 976.631 102.617 969.524 Q102.617 962.395 100.788 958.853 Q98.9828 955.288 95.3486 955.288 M95.3486 951.585 Q101.159 951.585 104.214 956.191 Q107.293 960.774 107.293 969.524 Q107.293 978.251 104.214 982.858 Q101.159 987.441 95.3486 987.441 Q89.5384 987.441 86.4597 982.858 Q83.4042 978.251 83.4042 969.524 Q83.4042 960.774 86.4597 956.191 Q89.5384 951.585 95.3486 951.585 Z" fill="#000000" fill-rule="nonzero" fill-opacity="1" /><path clip-path="url(#clip400)" d="M125.51 955.288 Q121.899 955.288 120.071 958.853 Q118.265 962.395 118.265 969.524 Q118.265 976.631 120.071 980.196 Q121.899 983.737 125.51 983.737 Q129.145 983.737 130.95 980.196 Q132.779 976.631 132.779 969.524 Q132.779 962.395 130.95 958.853 Q129.145 955.288 125.51 955.288 M125.51 951.585 Q131.321 951.585 134.376 956.191 Q137.455 960.774 137.455 969.524 Q137.455 978.251 134.376 982.858 Q131.321 987.441 125.51 987.441 Q119.7 987.441 116.622 982.858 Q113.566 978.251 113.566 969.524 Q113.566 960.774 116.622 956.191 Q119.7 951.585 125.51 951.585 Z" fill="#000000" fill-rule="nonzero" fill-opacity="1" /><path clip-path="url(#clip400)" d="M59.2145 729.47 L75.5339 729.47 L75.5339 733.406 L53.5895 733.406 L53.5895 729.47 Q56.2515 726.716 60.8349 722.086 Q65.4413 717.433 66.6219 716.091 Q68.8672 713.568 69.7468 711.832 Q70.6496 710.072 70.6496 708.383 Q70.6496 705.628 68.7052 703.892 Q66.7839 702.156 63.6821 702.156 Q61.483 702.156 59.0293 702.92 Q56.5988 703.683 53.821 705.234 L53.821 700.512 Q56.6451 699.378 59.0988 698.799 Q61.5524 698.221 63.5895 698.221 Q68.9598 698.221 72.1542 700.906 Q75.3487 703.591 75.3487 708.082 Q75.3487 710.211 74.5385 712.133 Q73.7515 714.031 71.645 716.623 Q71.0663 717.295 67.9645 720.512 Q64.8626 723.707 59.2145 729.47 Z" fill="#000000" fill-rule="nonzero" fill-opacity="1" /><path clip-path="url(#clip400)" d="M95.3486 701.924 Q91.7375 701.924 89.9088 705.489 Q88.1032 709.031 88.1032 716.16 Q88.1032 723.267 89.9088 726.832 Q91.7375 730.373 95.3486 730.373 Q98.9828 730.373 100.788 726.832 Q102.617 723.267 102.617 716.16 Q102.617 709.031 100.788 705.489 Q98.9828 701.924 95.3486 701.924 M95.3486 698.221 Q101.159 698.221 104.214 702.827 Q107.293 707.41 107.293 716.16 Q107.293 724.887 104.214 729.494 Q101.159 734.077 95.3486 734.077 Q89.5384 734.077 86.4597 729.494 Q83.4042 724.887 83.4042 716.16 Q83.4042 707.41 86.4597 702.827 Q89.5384 698.221 95.3486 698.221 Z" fill="#000000" fill-rule="nonzero" fill-opacity="1" /><path clip-path="url(#clip400)" d="M125.51 701.924 Q121.899 701.924 120.071 705.489 Q118.265 709.031 118.265 716.16 Q118.265 723.267 120.071 726.832 Q121.899 730.373 125.51 730.373 Q129.145 730.373 130.95 726.832 Q132.779 723.267 132.779 716.16 Q132.779 709.031 130.95 705.489 Q129.145 701.924 125.51 701.924 M125.51 698.221 Q131.321 698.221 134.376 702.827 Q137.455 707.41 137.455 716.16 Q137.455 724.887 134.376 729.494 Q131.321 734.077 125.51 734.077 Q119.7 734.077 116.622 729.494 Q113.566 724.887 113.566 716.16 Q113.566 707.41 116.622 702.827 Q119.7 698.221 125.51 698.221 Z" fill="#000000" fill-rule="nonzero" fill-opacity="1" /><path clip-path="url(#clip400)" d="M69.3533 461.407 Q72.7098 462.125 74.5848 464.393 Q76.4829 466.662 76.4829 469.995 Q76.4829 475.111 72.9644 477.912 Q69.4459 480.713 62.9645 480.713 Q60.7886 480.713 58.4738 480.273 Q56.1821 479.856 53.7284 479 L53.7284 474.486 Q55.6728 475.62 57.9877 476.199 Q60.3025 476.777 62.8256 476.777 Q67.2237 476.777 69.5154 475.041 Q71.8302 473.305 71.8302 469.995 Q71.8302 466.94 69.6774 465.227 Q67.5478 463.491 63.7284 463.491 L59.7006 463.491 L59.7006 459.648 L63.9135 459.648 Q67.3626 459.648 69.1913 458.282 Q71.02 456.893 71.02 454.301 Q71.02 451.639 69.1219 450.227 Q67.2469 448.792 63.7284 448.792 Q61.8071 448.792 59.608 449.208 Q57.409 449.625 54.7701 450.504 L54.7701 446.338 Q57.4321 445.597 59.7469 445.227 Q62.0849 444.856 64.145 444.856 Q69.4691 444.856 72.5709 447.287 Q75.6727 449.694 75.6727 453.815 Q75.6727 456.685 74.0292 458.676 Q72.3857 460.643 69.3533 461.407 Z" fill="#000000" fill-rule="nonzero" fill-opacity="1" /><path clip-path="url(#clip400)" d="M95.3486 448.56 Q91.7375 448.56 89.9088 452.125 Q88.1032 455.666 88.1032 462.796 Q88.1032 469.903 89.9088 473.467 Q91.7375 477.009 95.3486 477.009 Q98.9828 477.009 100.788 473.467 Q102.617 469.903 102.617 462.796 Q102.617 455.666 100.788 452.125 Q98.9828 448.56 95.3486 448.56 M95.3486 444.856 Q101.159 444.856 104.214 449.463 Q107.293 454.046 107.293 462.796 Q107.293 471.523 104.214 476.129 Q101.159 480.713 95.3486 480.713 Q89.5384 480.713 86.4597 476.129 Q83.4042 471.523 83.4042 462.796 Q83.4042 454.046 86.4597 449.463 Q89.5384 444.856 95.3486 444.856 Z" fill="#000000" fill-rule="nonzero" fill-opacity="1" /><path clip-path="url(#clip400)" d="M125.51 448.56 Q121.899 448.56 120.071 452.125 Q118.265 455.666 118.265 462.796 Q118.265 469.903 120.071 473.467 Q121.899 477.009 125.51 477.009 Q129.145 477.009 130.95 473.467 Q132.779 469.903 132.779 462.796 Q132.779 455.666 130.95 452.125 Q129.145 448.56 125.51 448.56 M125.51 444.856 Q131.321 444.856 134.376 449.463 Q137.455 454.046 137.455 462.796 Q137.455 471.523 134.376 476.129 Q131.321 480.713 125.51 480.713 Q119.7 480.713 116.622 476.129 Q113.566 471.523 113.566 462.796 Q113.566 454.046 116.622 449.463 Q119.7 444.856 125.51 444.856 Z" fill="#000000" fill-rule="nonzero" fill-opacity="1" /><path clip-path="url(#clip400)" d="M68.0339 196.191 L56.2284 214.64 L68.0339 214.64 L68.0339 196.191 M66.807 192.117 L72.6866 192.117 L72.6866 214.64 L77.6172 214.64 L77.6172 218.529 L72.6866 218.529 L72.6866 226.677 L68.0339 226.677 L68.0339 218.529 L52.4321 218.529 L52.4321 214.015 L66.807 192.117 Z" fill="#000000" fill-rule="nonzero" fill-opacity="1" /><path clip-path="url(#clip400)" d="M95.3486 195.196 Q91.7375 195.196 89.9088 198.761 Q88.1032 202.302 88.1032 209.432 Q88.1032 216.538 89.9088 220.103 Q91.7375 223.645 95.3486 223.645 Q98.9828 223.645 100.788 220.103 Q102.617 216.538 102.617 209.432 Q102.617 202.302 100.788 198.761 Q98.9828 195.196 95.3486 195.196 M95.3486 191.492 Q101.159 191.492 104.214 196.099 Q107.293 200.682 107.293 209.432 Q107.293 218.159 104.214 222.765 Q101.159 227.348 95.3486 227.348 Q89.5384 227.348 86.4597 222.765 Q83.4042 218.159 83.4042 209.432 Q83.4042 200.682 86.4597 196.099 Q89.5384 191.492 95.3486 191.492 Z" fill="#000000" fill-rule="nonzero" fill-opacity="1" /><path clip-path="url(#clip400)" d="M125.51 195.196 Q121.899 195.196 120.071 198.761 Q118.265 202.302 118.265 209.432 Q118.265 216.538 120.071 220.103 Q121.899 223.645 125.51 223.645 Q129.145 223.645 130.95 220.103 Q132.779 216.538 132.779 209.432 Q132.779 202.302 130.95 198.761 Q129.145 195.196 125.51 195.196 M125.51 191.492 Q131.321 191.492 134.376 196.099 Q137.455 200.682 137.455 209.432 Q137.455 218.159 134.376 222.765 Q131.321 227.348 125.51 227.348 Q119.7 227.348 116.622 222.765 Q113.566 218.159 113.566 209.432 Q113.566 200.682 116.622 196.099 Q119.7 191.492 125.51 191.492 Z" fill="#000000" fill-rule="nonzero" fill-opacity="1" /><path clip-path="url(#clip402)" d="M273.397 1220.32 L273.397 1222.85 L301.992 1222.85 L301.992 1220.32 L273.397 1220.32 L273.397 1220.32  Z" fill="#009af9" fill-rule="evenodd" fill-opacity="1"/>
<polyline clip-path="url(#clip402)" style="stroke:#000000; stroke-linecap:round; stroke-linejoin:round; stroke-width:4; stroke-opacity:1; fill:none" points="273.397,1220.32 273.397,1222.85 301.992,1222.85 301.992,1220.32 273.397,1220.32 "/>
<path clip-path="url(#clip402)" d="M301.992 1222.85 L301.992 1222.85 L330.587 1222.85 L330.587 1222.85 L301.992 1222.85 L301.992 1222.85  Z" fill="#009af9" fill-rule="evenodd" fill-opacity="1"/>
<polyline clip-path="url(#clip402)" style="stroke:#000000; stroke-linecap:round; stroke-linejoin:round; stroke-width:4; stroke-opacity:1; fill:none" points="301.992,1222.85 301.992,1222.85 330.587,1222.85 301.992,1222.85 "/>
<path clip-path="url(#clip402)" d="M330.587 1220.32 L330.587 1222.85 L359.182 1222.85 L359.182 1220.32 L330.587 1220.32 L330.587 1220.32  Z" fill="#009af9" fill-rule="evenodd" fill-opacity="1"/>
<polyline clip-path="url(#clip402)" style="stroke:#000000; stroke-linecap:round; stroke-linejoin:round; stroke-width:4; stroke-opacity:1; fill:none" points="330.587,1220.32 330.587,1222.85 359.182,1222.85 359.182,1220.32 330.587,1220.32 "/>
<path clip-path="url(#clip402)" d="M359.182 1222.85 L359.182 1222.85 L387.777 1222.85 L387.777 1222.85 L359.182 1222.85 L359.182 1222.85  Z" fill="#009af9" fill-rule="evenodd" fill-opacity="1"/>
<polyline clip-path="url(#clip402)" style="stroke:#000000; stroke-linecap:round; stroke-linejoin:round; stroke-width:4; stroke-opacity:1; fill:none" points="359.182,1222.85 359.182,1222.85 387.777,1222.85 359.182,1222.85 "/>
<path clip-path="url(#clip402)" d="M387.777 1220.32 L387.777 1222.85 L416.372 1222.85 L416.372 1220.32 L387.777 1220.32 L387.777 1220.32  Z" fill="#009af9" fill-rule="evenodd" fill-opacity="1"/>
<polyline clip-path="url(#clip402)" style="stroke:#000000; stroke-linecap:round; stroke-linejoin:round; stroke-width:4; stroke-opacity:1; fill:none" points="387.777,1220.32 387.777,1222.85 416.372,1222.85 416.372,1220.32 387.777,1220.32 "/>
<path clip-path="url(#clip402)" d="M416.372 1222.85 L416.372 1222.85 L444.966 1222.85 L444.966 1222.85 L416.372 1222.85 L416.372 1222.85  Z" fill="#009af9" fill-rule="evenodd" fill-opacity="1"/>
<polyline clip-path="url(#clip402)" style="stroke:#000000; stroke-linecap:round; stroke-linejoin:round; stroke-width:4; stroke-opacity:1; fill:none" points="416.372,1222.85 416.372,1222.85 444.966,1222.85 416.372,1222.85 "/>
<path clip-path="url(#clip402)" d="M444.966 1220.32 L444.966 1222.85 L473.561 1222.85 L473.561 1220.32 L444.966 1220.32 L444.966 1220.32  Z" fill="#009af9" fill-rule="evenodd" fill-opacity="1"/>
<polyline clip-path="url(#clip402)" style="stroke:#000000; stroke-linecap:round; stroke-linejoin:round; stroke-width:4; stroke-opacity:1; fill:none" points="444.966,1220.32 444.966,1222.85 473.561,1222.85 473.561,1220.32 444.966,1220.32 "/>
<path clip-path="url(#clip402)" d="M473.561 1220.32 L473.561 1222.85 L502.156 1222.85 L502.156 1220.32 L473.561 1220.32 L473.561 1220.32  Z" fill="#009af9" fill-rule="evenodd" fill-opacity="1"/>
<polyline clip-path="url(#clip402)" style="stroke:#000000; stroke-linecap:round; stroke-linejoin:round; stroke-width:4; stroke-opacity:1; fill:none" points="473.561,1220.32 473.561,1222.85 502.156,1222.85 502.156,1220.32 473.561,1220.32 "/>
<path clip-path="url(#clip402)" d="M502.156 1217.79 L502.156 1222.85 L530.751 1222.85 L530.751 1217.79 L502.156 1217.79 L502.156 1217.79  Z" fill="#009af9" fill-rule="evenodd" fill-opacity="1"/>
<polyline clip-path="url(#clip402)" style="stroke:#000000; stroke-linecap:round; stroke-linejoin:round; stroke-width:4; stroke-opacity:1; fill:none" points="502.156,1217.79 502.156,1222.85 530.751,1222.85 530.751,1217.79 502.156,1217.79 "/>
<path clip-path="url(#clip402)" d="M530.751 1217.79 L530.751 1222.85 L559.346 1222.85 L559.346 1217.79 L530.751 1217.79 L530.751 1217.79  Z" fill="#009af9" fill-rule="evenodd" fill-opacity="1"/>
<polyline clip-path="url(#clip402)" style="stroke:#000000; stroke-linecap:round; stroke-linejoin:round; stroke-width:4; stroke-opacity:1; fill:none" points="530.751,1217.79 530.751,1222.85 559.346,1222.85 559.346,1217.79 530.751,1217.79 "/>
<path clip-path="url(#clip402)" d="M559.346 1210.19 L559.346 1222.85 L587.941 1222.85 L587.941 1210.19 L559.346 1210.19 L559.346 1210.19  Z" fill="#009af9" fill-rule="evenodd" fill-opacity="1"/>
<polyline clip-path="url(#clip402)" style="stroke:#000000; stroke-linecap:round; stroke-linejoin:round; stroke-width:4; stroke-opacity:1; fill:none" points="559.346,1210.19 559.346,1222.85 587.941,1222.85 587.941,1210.19 559.346,1210.19 "/>
<path clip-path="url(#clip402)" d="M587.941 1197.52 L587.941 1222.85 L616.536 1222.85 L616.536 1197.52 L587.941 1197.52 L587.941 1197.52  Z" fill="#009af9" fill-rule="evenodd" fill-opacity="1"/>
<polyline clip-path="url(#clip402)" style="stroke:#000000; stroke-linecap:round; stroke-linejoin:round; stroke-width:4; stroke-opacity:1; fill:none" points="587.941,1197.52 587.941,1222.85 616.536,1222.85 616.536,1197.52 587.941,1197.52 "/>
<path clip-path="url(#clip402)" d="M616.536 1202.58 L616.536 1222.85 L645.13 1222.85 L645.13 1202.58 L616.536 1202.58 L616.536 1202.58  Z" fill="#009af9" fill-rule="evenodd" fill-opacity="1"/>
<polyline clip-path="url(#clip402)" style="stroke:#000000; stroke-linecap:round; stroke-linejoin:round; stroke-width:4; stroke-opacity:1; fill:none" points="616.536,1202.58 616.536,1222.85 645.13,1222.85 645.13,1202.58 616.536,1202.58 "/>
<path clip-path="url(#clip402)" d="M645.13 1192.45 L645.13 1222.85 L673.725 1222.85 L673.725 1192.45 L645.13 1192.45 L645.13 1192.45  Z" fill="#009af9" fill-rule="evenodd" fill-opacity="1"/>
<polyline clip-path="url(#clip402)" style="stroke:#000000; stroke-linecap:round; stroke-linejoin:round; stroke-width:4; stroke-opacity:1; fill:none" points="645.13,1192.45 645.13,1222.85 673.725,1222.85 673.725,1192.45 645.13,1192.45 "/>
<path clip-path="url(#clip402)" d="M673.725 1162.05 L673.725 1222.85 L702.32 1222.85 L702.32 1162.05 L673.725 1162.05 L673.725 1162.05  Z" fill="#009af9" fill-rule="evenodd" fill-opacity="1"/>
<polyline clip-path="url(#clip402)" style="stroke:#000000; stroke-linecap:round; stroke-linejoin:round; stroke-width:4; stroke-opacity:1; fill:none" points="673.725,1162.05 673.725,1222.85 702.32,1222.85 702.32,1162.05 673.725,1162.05 "/>
<path clip-path="url(#clip402)" d="M702.32 1129.11 L702.32 1222.85 L730.915 1222.85 L730.915 1129.11 L702.32 1129.11 L702.32 1129.11  Z" fill="#009af9" fill-rule="evenodd" fill-opacity="1"/>
<polyline clip-path="url(#clip402)" style="stroke:#000000; stroke-linecap:round; stroke-linejoin:round; stroke-width:4; stroke-opacity:1; fill:none" points="702.32,1129.11 702.32,1222.85 730.915,1222.85 730.915,1129.11 702.32,1129.11 "/>
<path clip-path="url(#clip402)" d="M730.915 1129.11 L730.915 1222.85 L759.51 1222.85 L759.51 1129.11 L730.915 1129.11 L730.915 1129.11  Z" fill="#009af9" fill-rule="evenodd" fill-opacity="1"/>
<polyline clip-path="url(#clip402)" style="stroke:#000000; stroke-linecap:round; stroke-linejoin:round; stroke-width:4; stroke-opacity:1; fill:none" points="730.915,1129.11 730.915,1222.85 759.51,1222.85 759.51,1129.11 730.915,1129.11 "/>
<path clip-path="url(#clip402)" d="M759.51 1101.24 L759.51 1222.85 L788.105 1222.85 L788.105 1101.24 L759.51 1101.24 L759.51 1101.24  Z" fill="#009af9" fill-rule="evenodd" fill-opacity="1"/>
<polyline clip-path="url(#clip402)" style="stroke:#000000; stroke-linecap:round; stroke-linejoin:round; stroke-width:4; stroke-opacity:1; fill:none" points="759.51,1101.24 759.51,1222.85 788.105,1222.85 788.105,1101.24 759.51,1101.24 "/>
<path clip-path="url(#clip402)" d="M788.105 1060.7 L788.105 1222.85 L816.699 1222.85 L816.699 1060.7 L788.105 1060.7 L788.105 1060.7  Z" fill="#009af9" fill-rule="evenodd" fill-opacity="1"/>
<polyline clip-path="url(#clip402)" style="stroke:#000000; stroke-linecap:round; stroke-linejoin:round; stroke-width:4; stroke-opacity:1; fill:none" points="788.105,1060.7 788.105,1222.85 816.699,1222.85 816.699,1060.7 788.105,1060.7 "/>
<path clip-path="url(#clip402)" d="M816.699 1045.5 L816.699 1222.85 L845.294 1222.85 L845.294 1045.5 L816.699 1045.5 L816.699 1045.5  Z" fill="#009af9" fill-rule="evenodd" fill-opacity="1"/>
<polyline clip-path="url(#clip402)" style="stroke:#000000; stroke-linecap:round; stroke-linejoin:round; stroke-width:4; stroke-opacity:1; fill:none" points="816.699,1045.5 816.699,1222.85 845.294,1222.85 845.294,1045.5 816.699,1045.5 "/>
<path clip-path="url(#clip402)" d="M845.294 1025.23 L845.294 1222.85 L873.889 1222.85 L873.889 1025.23 L845.294 1025.23 L845.294 1025.23  Z" fill="#009af9" fill-rule="evenodd" fill-opacity="1"/>
<polyline clip-path="url(#clip402)" style="stroke:#000000; stroke-linecap:round; stroke-linejoin:round; stroke-width:4; stroke-opacity:1; fill:none" points="845.294,1025.23 845.294,1222.85 873.889,1222.85 873.889,1025.23 845.294,1025.23 "/>
<path clip-path="url(#clip402)" d="M873.889 989.759 L873.889 1222.85 L902.484 1222.85 L902.484 989.759 L873.889 989.759 L873.889 989.759  Z" fill="#009af9" fill-rule="evenodd" fill-opacity="1"/>
<polyline clip-path="url(#clip402)" style="stroke:#000000; stroke-linecap:round; stroke-linejoin:round; stroke-width:4; stroke-opacity:1; fill:none" points="873.889,989.759 873.889,1222.85 902.484,1222.85 902.484,989.759 873.889,989.759 "/>
<path clip-path="url(#clip402)" d="M902.484 896.014 L902.484 1222.85 L931.079 1222.85 L931.079 896.014 L902.484 896.014 L902.484 896.014  Z" fill="#009af9" fill-rule="evenodd" fill-opacity="1"/>
<polyline clip-path="url(#clip402)" style="stroke:#000000; stroke-linecap:round; stroke-linejoin:round; stroke-width:4; stroke-opacity:1; fill:none" points="902.484,896.014 902.484,1222.85 931.079,1222.85 931.079,896.014 902.484,896.014 "/>
<path clip-path="url(#clip402)" d="M931.079 855.476 L931.079 1222.85 L959.674 1222.85 L959.674 855.476 L931.079 855.476 L931.079 855.476  Z" fill="#009af9" fill-rule="evenodd" fill-opacity="1"/>
<polyline clip-path="url(#clip402)" style="stroke:#000000; stroke-linecap:round; stroke-linejoin:round; stroke-width:4; stroke-opacity:1; fill:none" points="931.079,855.476 931.079,1222.85 959.674,1222.85 959.674,855.476 931.079,855.476 "/>
<path clip-path="url(#clip402)" d="M959.674 716.126 L959.674 1222.85 L988.269 1222.85 L988.269 716.126 L959.674 716.126 L959.674 716.126  Z" fill="#009af9" fill-rule="evenodd" fill-opacity="1"/>
<polyline clip-path="url(#clip402)" style="stroke:#000000; stroke-linecap:round; stroke-linejoin:round; stroke-width:4; stroke-opacity:1; fill:none" points="959.674,716.126 959.674,1222.85 988.269,1222.85 988.269,716.126 959.674,716.126 "/>
<path clip-path="url(#clip402)" d="M988.269 749.063 L988.269 1222.85 L1016.86 1222.85 L1016.86 749.063 L988.269 749.063 L988.269 749.063  Z" fill="#009af9" fill-rule="evenodd" fill-opacity="1"/>
<polyline clip-path="url(#clip402)" style="stroke:#000000; stroke-linecap:round; stroke-linejoin:round; stroke-width:4; stroke-opacity:1; fill:none" points="988.269,749.063 988.269,1222.85 1016.86,1222.85 1016.86,749.063 988.269,749.063 "/>
<path clip-path="url(#clip402)" d="M1016.86 650.251 L1016.86 1222.85 L1045.46 1222.85 L1045.46 650.251 L1016.86 650.251 L1016.86 650.251  Z" fill="#009af9" fill-rule="evenodd" fill-opacity="1"/>
<polyline clip-path="url(#clip402)" style="stroke:#000000; stroke-linecap:round; stroke-linejoin:round; stroke-width:4; stroke-opacity:1; fill:none" points="1016.86,650.251 1016.86,1222.85 1045.46,1222.85 1045.46,650.251 1016.86,650.251 "/>
<path clip-path="url(#clip402)" d="M1045.46 548.905 L1045.46 1222.85 L1074.05 1222.85 L1074.05 548.905 L1045.46 548.905 L1045.46 548.905  Z" fill="#009af9" fill-rule="evenodd" fill-opacity="1"/>
<polyline clip-path="url(#clip402)" style="stroke:#000000; stroke-linecap:round; stroke-linejoin:round; stroke-width:4; stroke-opacity:1; fill:none" points="1045.46,548.905 1045.46,1222.85 1074.05,1222.85 1074.05,548.905 1045.46,548.905 "/>
<path clip-path="url(#clip402)" d="M1074.05 551.439 L1074.05 1222.85 L1102.65 1222.85 L1102.65 551.439 L1074.05 551.439 L1074.05 551.439  Z" fill="#009af9" fill-rule="evenodd" fill-opacity="1"/>
<polyline clip-path="url(#clip402)" style="stroke:#000000; stroke-linecap:round; stroke-linejoin:round; stroke-width:4; stroke-opacity:1; fill:none" points="1074.05,551.439 1074.05,1222.85 1102.65,1222.85 1102.65,551.439 1074.05,551.439 "/>
<path clip-path="url(#clip402)" d="M1102.65 389.286 L1102.65 1222.85 L1131.24 1222.85 L1131.24 389.286 L1102.65 389.286 L1102.65 389.286  Z" fill="#009af9" fill-rule="evenodd" fill-opacity="1"/>
<polyline clip-path="url(#clip402)" style="stroke:#000000; stroke-linecap:round; stroke-linejoin:round; stroke-width:4; stroke-opacity:1; fill:none" points="1102.65,389.286 1102.65,1222.85 1131.24,1222.85 1131.24,389.286 1102.65,389.286 "/>
<path clip-path="url(#clip402)" d="M1131.24 386.752 L1131.24 1222.85 L1159.84 1222.85 L1159.84 386.752 L1131.24 386.752 L1131.24 386.752  Z" fill="#009af9" fill-rule="evenodd" fill-opacity="1"/>
<polyline clip-path="url(#clip402)" style="stroke:#000000; stroke-linecap:round; stroke-linejoin:round; stroke-width:4; stroke-opacity:1; fill:none" points="1131.24,386.752 1131.24,1222.85 1159.84,1222.85 1159.84,386.752 1131.24,386.752 "/>
<path clip-path="url(#clip402)" d="M1159.84 272.738 L1159.84 1222.85 L1188.43 1222.85 L1188.43 272.738 L1159.84 272.738 L1159.84 272.738  Z" fill="#009af9" fill-rule="evenodd" fill-opacity="1"/>
<polyline clip-path="url(#clip402)" style="stroke:#000000; stroke-linecap:round; stroke-linejoin:round; stroke-width:4; stroke-opacity:1; fill:none" points="1159.84,272.738 1159.84,1222.85 1188.43,1222.85 1188.43,272.738 1159.84,272.738 "/>
<path clip-path="url(#clip402)" d="M1188.43 194.195 L1188.43 1222.85 L1217.03 1222.85 L1217.03 194.195 L1188.43 194.195 L1188.43 194.195  Z" fill="#009af9" fill-rule="evenodd" fill-opacity="1"/>
<polyline clip-path="url(#clip402)" style="stroke:#000000; stroke-linecap:round; stroke-linejoin:round; stroke-width:4; stroke-opacity:1; fill:none" points="1188.43,194.195 1188.43,1222.85 1217.03,1222.85 1217.03,194.195 1188.43,194.195 "/>
<path clip-path="url(#clip402)" d="M1217.03 313.276 L1217.03 1222.85 L1245.62 1222.85 L1245.62 313.276 L1217.03 313.276 L1217.03 313.276  Z" fill="#009af9" fill-rule="evenodd" fill-opacity="1"/>
<polyline clip-path="url(#clip402)" style="stroke:#000000; stroke-linecap:round; stroke-linejoin:round; stroke-width:4; stroke-opacity:1; fill:none" points="1217.03,313.276 1217.03,1222.85 1245.62,1222.85 1245.62,313.276 1217.03,313.276 "/>
<path clip-path="url(#clip402)" d="M1245.62 70.0469 L1245.62 1222.85 L1274.22 1222.85 L1274.22 70.0469 L1245.62 70.0469 L1245.62 70.0469  Z" fill="#009af9" fill-rule="evenodd" fill-opacity="1"/>
<polyline clip-path="url(#clip402)" style="stroke:#000000; stroke-linecap:round; stroke-linejoin:round; stroke-width:4; stroke-opacity:1; fill:none" points="1245.62,70.0469 1245.62,1222.85 1274.22,1222.85 1274.22,70.0469 1245.62,70.0469 "/>
<path clip-path="url(#clip402)" d="M1274.22 115.652 L1274.22 1222.85 L1302.81 1222.85 L1302.81 115.652 L1274.22 115.652 L1274.22 115.652  Z" fill="#009af9" fill-rule="evenodd" fill-opacity="1"/>
<polyline clip-path="url(#clip402)" style="stroke:#000000; stroke-linecap:round; stroke-linejoin:round; stroke-width:4; stroke-opacity:1; fill:none" points="1274.22,115.652 1274.22,1222.85 1302.81,1222.85 1302.81,115.652 1274.22,115.652 "/>
<path clip-path="url(#clip402)" d="M1302.81 135.922 L1302.81 1222.85 L1331.41 1222.85 L1331.41 135.922 L1302.81 135.922 L1302.81 135.922  Z" fill="#009af9" fill-rule="evenodd" fill-opacity="1"/>
<polyline clip-path="url(#clip402)" style="stroke:#000000; stroke-linecap:round; stroke-linejoin:round; stroke-width:4; stroke-opacity:1; fill:none" points="1302.81,135.922 1302.81,1222.85 1331.41,1222.85 1331.41,135.922 1302.81,135.922 "/>
<path clip-path="url(#clip402)" d="M1331.41 47.2441 L1331.41 1222.85 L1360 1222.85 L1360 47.2441 L1331.41 47.2441 L1331.41 47.2441  Z" fill="#009af9" fill-rule="evenodd" fill-opacity="1"/>
<polyline clip-path="url(#clip402)" style="stroke:#000000; stroke-linecap:round; stroke-linejoin:round; stroke-width:4; stroke-opacity:1; fill:none" points="1331.41,47.2441 1331.41,1222.85 1360,1222.85 1360,47.2441 1331.41,47.2441 "/>
<path clip-path="url(#clip402)" d="M1360 105.518 L1360 1222.85 L1388.6 1222.85 L1388.6 105.518 L1360 105.518 L1360 105.518  Z" fill="#009af9" fill-rule="evenodd" fill-opacity="1"/>
<polyline clip-path="url(#clip402)" style="stroke:#000000; stroke-linecap:round; stroke-linejoin:round; stroke-width:4; stroke-opacity:1; fill:none" points="1360,105.518 1360,1222.85 1388.6,1222.85 1388.6,105.518 1360,105.518 "/>
<path clip-path="url(#clip402)" d="M1388.6 105.518 L1388.6 1222.85 L1417.19 1222.85 L1417.19 105.518 L1388.6 105.518 L1388.6 105.518  Z" fill="#009af9" fill-rule="evenodd" fill-opacity="1"/>
<polyline clip-path="url(#clip402)" style="stroke:#000000; stroke-linecap:round; stroke-linejoin:round; stroke-width:4; stroke-opacity:1; fill:none" points="1388.6,105.518 1388.6,1222.85 1417.19,1222.85 1417.19,105.518 1388.6,105.518 "/>
<path clip-path="url(#clip402)" d="M1417.19 189.128 L1417.19 1222.85 L1445.79 1222.85 L1445.79 189.128 L1417.19 189.128 L1417.19 189.128  Z" fill="#009af9" fill-rule="evenodd" fill-opacity="1"/>
<polyline clip-path="url(#clip402)" style="stroke:#000000; stroke-linecap:round; stroke-linejoin:round; stroke-width:4; stroke-opacity:1; fill:none" points="1417.19,189.128 1417.19,1222.85 1445.79,1222.85 1445.79,189.128 1417.19,189.128 "/>
<path clip-path="url(#clip402)" d="M1445.79 176.46 L1445.79 1222.85 L1474.38 1222.85 L1474.38 176.46 L1445.79 176.46 L1445.79 176.46  Z" fill="#009af9" fill-rule="evenodd" fill-opacity="1"/>
<polyline clip-path="url(#clip402)" style="stroke:#000000; stroke-linecap:round; stroke-linejoin:round; stroke-width:4; stroke-opacity:1; fill:none" points="1445.79,176.46 1445.79,1222.85 1474.38,1222.85 1474.38,176.46 1445.79,176.46 "/>
<path clip-path="url(#clip402)" d="M1474.38 290.474 L1474.38 1222.85 L1502.98 1222.85 L1502.98 290.474 L1474.38 290.474 L1474.38 290.474  Z" fill="#009af9" fill-rule="evenodd" fill-opacity="1"/>
<polyline clip-path="url(#clip402)" style="stroke:#000000; stroke-linecap:round; stroke-linejoin:round; stroke-width:4; stroke-opacity:1; fill:none" points="1474.38,290.474 1474.38,1222.85 1502.98,1222.85 1502.98,290.474 1474.38,290.474 "/>
<path clip-path="url(#clip402)" d="M1502.98 419.689 L1502.98 1222.85 L1531.57 1222.85 L1531.57 419.689 L1502.98 419.689 L1502.98 419.689  Z" fill="#009af9" fill-rule="evenodd" fill-opacity="1"/>
<polyline clip-path="url(#clip402)" style="stroke:#000000; stroke-linecap:round; stroke-linejoin:round; stroke-width:4; stroke-opacity:1; fill:none" points="1502.98,419.689 1502.98,1222.85 1531.57,1222.85 1531.57,419.689 1502.98,419.689 "/>
<path clip-path="url(#clip402)" d="M1531.57 523.569 L1531.57 1222.85 L1560.17 1222.85 L1560.17 523.569 L1531.57 523.569 L1531.57 523.569  Z" fill="#009af9" fill-rule="evenodd" fill-opacity="1"/>
<polyline clip-path="url(#clip402)" style="stroke:#000000; stroke-linecap:round; stroke-linejoin:round; stroke-width:4; stroke-opacity:1; fill:none" points="1531.57,523.569 1531.57,1222.85 1560.17,1222.85 1560.17,523.569 1531.57,523.569 "/>
<path clip-path="url(#clip402)" d="M1560.17 510.901 L1560.17 1222.85 L1588.76 1222.85 L1588.76 510.901 L1560.17 510.901 L1560.17 510.901  Z" fill="#009af9" fill-rule="evenodd" fill-opacity="1"/>
<polyline clip-path="url(#clip402)" style="stroke:#000000; stroke-linecap:round; stroke-linejoin:round; stroke-width:4; stroke-opacity:1; fill:none" points="1560.17,510.901 1560.17,1222.85 1588.76,1222.85 1588.76,510.901 1560.17,510.901 "/>
<path clip-path="url(#clip402)" d="M1588.76 594.511 L1588.76 1222.85 L1617.36 1222.85 L1617.36 594.511 L1588.76 594.511 L1588.76 594.511  Z" fill="#009af9" fill-rule="evenodd" fill-opacity="1"/>
<polyline clip-path="url(#clip402)" style="stroke:#000000; stroke-linecap:round; stroke-linejoin:round; stroke-width:4; stroke-opacity:1; fill:none" points="1588.76,594.511 1588.76,1222.85 1617.36,1222.85 1617.36,594.511 1588.76,594.511 "/>
<path clip-path="url(#clip402)" d="M1617.36 602.112 L1617.36 1222.85 L1645.95 1222.85 L1645.95 602.112 L1617.36 602.112 L1617.36 602.112  Z" fill="#009af9" fill-rule="evenodd" fill-opacity="1"/>
<polyline clip-path="url(#clip402)" style="stroke:#000000; stroke-linecap:round; stroke-linejoin:round; stroke-width:4; stroke-opacity:1; fill:none" points="1617.36,602.112 1617.36,1222.85 1645.95,1222.85 1645.95,602.112 1617.36,602.112 "/>
<path clip-path="url(#clip402)" d="M1645.95 670.52 L1645.95 1222.85 L1674.54 1222.85 L1674.54 670.52 L1645.95 670.52 L1645.95 670.52  Z" fill="#009af9" fill-rule="evenodd" fill-opacity="1"/>
<polyline clip-path="url(#clip402)" style="stroke:#000000; stroke-linecap:round; stroke-linejoin:round; stroke-width:4; stroke-opacity:1; fill:none" points="1645.95,670.52 1645.95,1222.85 1674.54,1222.85 1674.54,670.52 1645.95,670.52 "/>
<path clip-path="url(#clip402)" d="M1674.54 822.538 L1674.54 1222.85 L1703.14 1222.85 L1703.14 822.538 L1674.54 822.538 L1674.54 822.538  Z" fill="#009af9" fill-rule="evenodd" fill-opacity="1"/>
<polyline clip-path="url(#clip402)" style="stroke:#000000; stroke-linecap:round; stroke-linejoin:round; stroke-width:4; stroke-opacity:1; fill:none" points="1674.54,822.538 1674.54,1222.85 1703.14,1222.85 1703.14,822.538 1674.54,822.538 "/>
<path clip-path="url(#clip402)" d="M1703.14 855.476 L1703.14 1222.85 L1731.73 1222.85 L1731.73 855.476 L1703.14 855.476 L1703.14 855.476  Z" fill="#009af9" fill-rule="evenodd" fill-opacity="1"/>
<polyline clip-path="url(#clip402)" style="stroke:#000000; stroke-linecap:round; stroke-linejoin:round; stroke-width:4; stroke-opacity:1; fill:none" points="1703.14,855.476 1703.14,1222.85 1731.73,1222.85 1731.73,855.476 1703.14,855.476 "/>
<path clip-path="url(#clip402)" d="M1731.73 893.48 L1731.73 1222.85 L1760.33 1222.85 L1760.33 893.48 L1731.73 893.48 L1731.73 893.48  Z" fill="#009af9" fill-rule="evenodd" fill-opacity="1"/>
<polyline clip-path="url(#clip402)" style="stroke:#000000; stroke-linecap:round; stroke-linejoin:round; stroke-width:4; stroke-opacity:1; fill:none" points="1731.73,893.48 1731.73,1222.85 1760.33,1222.85 1760.33,893.48 1731.73,893.48 "/>
<path clip-path="url(#clip402)" d="M1760.33 974.557 L1760.33 1222.85 L1788.92 1222.85 L1788.92 974.557 L1760.33 974.557 L1760.33 974.557  Z" fill="#009af9" fill-rule="evenodd" fill-opacity="1"/>
<polyline clip-path="url(#clip402)" style="stroke:#000000; stroke-linecap:round; stroke-linejoin:round; stroke-width:4; stroke-opacity:1; fill:none" points="1760.33,974.557 1760.33,1222.85 1788.92,1222.85 1788.92,974.557 1760.33,974.557 "/>
<path clip-path="url(#clip402)" d="M1788.92 972.023 L1788.92 1222.85 L1817.52 1222.85 L1817.52 972.023 L1788.92 972.023 L1788.92 972.023  Z" fill="#009af9" fill-rule="evenodd" fill-opacity="1"/>
<polyline clip-path="url(#clip402)" style="stroke:#000000; stroke-linecap:round; stroke-linejoin:round; stroke-width:4; stroke-opacity:1; fill:none" points="1788.92,972.023 1788.92,1222.85 1817.52,1222.85 1817.52,972.023 1788.92,972.023 "/>
<path clip-path="url(#clip402)" d="M1817.52 1063.23 L1817.52 1222.85 L1846.11 1222.85 L1846.11 1063.23 L1817.52 1063.23 L1817.52 1063.23  Z" fill="#009af9" fill-rule="evenodd" fill-opacity="1"/>
<polyline clip-path="url(#clip402)" style="stroke:#000000; stroke-linecap:round; stroke-linejoin:round; stroke-width:4; stroke-opacity:1; fill:none" points="1817.52,1063.23 1817.52,1222.85 1846.11,1222.85 1846.11,1063.23 1817.52,1063.23 "/>
<path clip-path="url(#clip402)" d="M1846.11 1075.9 L1846.11 1222.85 L1874.71 1222.85 L1874.71 1075.9 L1846.11 1075.9 L1846.11 1075.9  Z" fill="#009af9" fill-rule="evenodd" fill-opacity="1"/>
<polyline clip-path="url(#clip402)" style="stroke:#000000; stroke-linecap:round; stroke-linejoin:round; stroke-width:4; stroke-opacity:1; fill:none" points="1846.11,1075.9 1846.11,1222.85 1874.71,1222.85 1874.71,1075.9 1846.11,1075.9 "/>
<path clip-path="url(#clip402)" d="M1874.71 1106.31 L1874.71 1222.85 L1903.3 1222.85 L1903.3 1106.31 L1874.71 1106.31 L1874.71 1106.31  Z" fill="#009af9" fill-rule="evenodd" fill-opacity="1"/>
<polyline clip-path="url(#clip402)" style="stroke:#000000; stroke-linecap:round; stroke-linejoin:round; stroke-width:4; stroke-opacity:1; fill:none" points="1874.71,1106.31 1874.71,1222.85 1903.3,1222.85 1903.3,1106.31 1874.71,1106.31 "/>
<path clip-path="url(#clip402)" d="M1903.3 1144.31 L1903.3 1222.85 L1931.9 1222.85 L1931.9 1144.31 L1903.3 1144.31 L1903.3 1144.31  Z" fill="#009af9" fill-rule="evenodd" fill-opacity="1"/>
<polyline clip-path="url(#clip402)" style="stroke:#000000; stroke-linecap:round; stroke-linejoin:round; stroke-width:4; stroke-opacity:1; fill:none" points="1903.3,1144.31 1903.3,1222.85 1931.9,1222.85 1931.9,1144.31 1903.3,1144.31 "/>
<path clip-path="url(#clip402)" d="M1931.9 1172.18 L1931.9 1222.85 L1960.49 1222.85 L1960.49 1172.18 L1931.9 1172.18 L1931.9 1172.18  Z" fill="#009af9" fill-rule="evenodd" fill-opacity="1"/>
<polyline clip-path="url(#clip402)" style="stroke:#000000; stroke-linecap:round; stroke-linejoin:round; stroke-width:4; stroke-opacity:1; fill:none" points="1931.9,1172.18 1931.9,1222.85 1960.49,1222.85 1960.49,1172.18 1931.9,1172.18 "/>
<circle clip-path="url(#clip402)" style="fill:#009af9; stroke:none; fill-opacity:0" cx="287.695" cy="1220.32" r="2"/>
<circle clip-path="url(#clip402)" style="fill:#009af9; stroke:none; fill-opacity:0" cx="316.29" cy="1222.85" r="2"/>
<circle clip-path="url(#clip402)" style="fill:#009af9; stroke:none; fill-opacity:0" cx="344.884" cy="1220.32" r="2"/>
<circle clip-path="url(#clip402)" style="fill:#009af9; stroke:none; fill-opacity:0" cx="373.479" cy="1222.85" r="2"/>
<circle clip-path="url(#clip402)" style="fill:#009af9; stroke:none; fill-opacity:0" cx="402.074" cy="1220.32" r="2"/>
<circle clip-path="url(#clip402)" style="fill:#009af9; stroke:none; fill-opacity:0" cx="430.669" cy="1222.85" r="2"/>
<circle clip-path="url(#clip402)" style="fill:#009af9; stroke:none; fill-opacity:0" cx="459.264" cy="1220.32" r="2"/>
<circle clip-path="url(#clip402)" style="fill:#009af9; stroke:none; fill-opacity:0" cx="487.859" cy="1220.32" r="2"/>
<circle clip-path="url(#clip402)" style="fill:#009af9; stroke:none; fill-opacity:0" cx="516.454" cy="1217.79" r="2"/>
<circle clip-path="url(#clip402)" style="fill:#009af9; stroke:none; fill-opacity:0" cx="545.048" cy="1217.79" r="2"/>
<circle clip-path="url(#clip402)" style="fill:#009af9; stroke:none; fill-opacity:0" cx="573.643" cy="1210.19" r="2"/>
<circle clip-path="url(#clip402)" style="fill:#009af9; stroke:none; fill-opacity:0" cx="602.238" cy="1197.52" r="2"/>
<circle clip-path="url(#clip402)" style="fill:#009af9; stroke:none; fill-opacity:0" cx="630.833" cy="1202.58" r="2"/>
<circle clip-path="url(#clip402)" style="fill:#009af9; stroke:none; fill-opacity:0" cx="659.428" cy="1192.45" r="2"/>
<circle clip-path="url(#clip402)" style="fill:#009af9; stroke:none; fill-opacity:0" cx="688.023" cy="1162.05" r="2"/>
<circle clip-path="url(#clip402)" style="fill:#009af9; stroke:none; fill-opacity:0" cx="716.617" cy="1129.11" r="2"/>
<circle clip-path="url(#clip402)" style="fill:#009af9; stroke:none; fill-opacity:0" cx="745.212" cy="1129.11" r="2"/>
<circle clip-path="url(#clip402)" style="fill:#009af9; stroke:none; fill-opacity:0" cx="773.807" cy="1101.24" r="2"/>
<circle clip-path="url(#clip402)" style="fill:#009af9; stroke:none; fill-opacity:0" cx="802.402" cy="1060.7" r="2"/>
<circle clip-path="url(#clip402)" style="fill:#009af9; stroke:none; fill-opacity:0" cx="830.997" cy="1045.5" r="2"/>
<circle clip-path="url(#clip402)" style="fill:#009af9; stroke:none; fill-opacity:0" cx="859.592" cy="1025.23" r="2"/>
<circle clip-path="url(#clip402)" style="fill:#009af9; stroke:none; fill-opacity:0" cx="888.187" cy="989.759" r="2"/>
<circle clip-path="url(#clip402)" style="fill:#009af9; stroke:none; fill-opacity:0" cx="916.781" cy="896.014" r="2"/>
<circle clip-path="url(#clip402)" style="fill:#009af9; stroke:none; fill-opacity:0" cx="945.376" cy="855.476" r="2"/>
<circle clip-path="url(#clip402)" style="fill:#009af9; stroke:none; fill-opacity:0" cx="973.971" cy="716.126" r="2"/>
<circle clip-path="url(#clip402)" style="fill:#009af9; stroke:none; fill-opacity:0" cx="1002.57" cy="749.063" r="2"/>
<circle clip-path="url(#clip402)" style="fill:#009af9; stroke:none; fill-opacity:0" cx="1031.16" cy="650.251" r="2"/>
<circle clip-path="url(#clip402)" style="fill:#009af9; stroke:none; fill-opacity:0" cx="1059.76" cy="548.905" r="2"/>
<circle clip-path="url(#clip402)" style="fill:#009af9; stroke:none; fill-opacity:0" cx="1088.35" cy="551.439" r="2"/>
<circle clip-path="url(#clip402)" style="fill:#009af9; stroke:none; fill-opacity:0" cx="1116.95" cy="389.286" r="2"/>
<circle clip-path="url(#clip402)" style="fill:#009af9; stroke:none; fill-opacity:0" cx="1145.54" cy="386.752" r="2"/>
<circle clip-path="url(#clip402)" style="fill:#009af9; stroke:none; fill-opacity:0" cx="1174.14" cy="272.738" r="2"/>
<circle clip-path="url(#clip402)" style="fill:#009af9; stroke:none; fill-opacity:0" cx="1202.73" cy="194.195" r="2"/>
<circle clip-path="url(#clip402)" style="fill:#009af9; stroke:none; fill-opacity:0" cx="1231.32" cy="313.276" r="2"/>
<circle clip-path="url(#clip402)" style="fill:#009af9; stroke:none; fill-opacity:0" cx="1259.92" cy="70.0469" r="2"/>
<circle clip-path="url(#clip402)" style="fill:#009af9; stroke:none; fill-opacity:0" cx="1288.51" cy="115.652" r="2"/>
<circle clip-path="url(#clip402)" style="fill:#009af9; stroke:none; fill-opacity:0" cx="1317.11" cy="135.922" r="2"/>
<circle clip-path="url(#clip402)" style="fill:#009af9; stroke:none; fill-opacity:0" cx="1345.7" cy="47.2441" r="2"/>
<circle clip-path="url(#clip402)" style="fill:#009af9; stroke:none; fill-opacity:0" cx="1374.3" cy="105.518" r="2"/>
<circle clip-path="url(#clip402)" style="fill:#009af9; stroke:none; fill-opacity:0" cx="1402.89" cy="105.518" r="2"/>
<circle clip-path="url(#clip402)" style="fill:#009af9; stroke:none; fill-opacity:0" cx="1431.49" cy="189.128" r="2"/>
<circle clip-path="url(#clip402)" style="fill:#009af9; stroke:none; fill-opacity:0" cx="1460.08" cy="176.46" r="2"/>
<circle clip-path="url(#clip402)" style="fill:#009af9; stroke:none; fill-opacity:0" cx="1488.68" cy="290.474" r="2"/>
<circle clip-path="url(#clip402)" style="fill:#009af9; stroke:none; fill-opacity:0" cx="1517.27" cy="419.689" r="2"/>
<circle clip-path="url(#clip402)" style="fill:#009af9; stroke:none; fill-opacity:0" cx="1545.87" cy="523.569" r="2"/>
<circle clip-path="url(#clip402)" style="fill:#009af9; stroke:none; fill-opacity:0" cx="1574.46" cy="510.901" r="2"/>
<circle clip-path="url(#clip402)" style="fill:#009af9; stroke:none; fill-opacity:0" cx="1603.06" cy="594.511" r="2"/>
<circle clip-path="url(#clip402)" style="fill:#009af9; stroke:none; fill-opacity:0" cx="1631.65" cy="602.112" r="2"/>
<circle clip-path="url(#clip402)" style="fill:#009af9; stroke:none; fill-opacity:0" cx="1660.25" cy="670.52" r="2"/>
<circle clip-path="url(#clip402)" style="fill:#009af9; stroke:none; fill-opacity:0" cx="1688.84" cy="822.538" r="2"/>
<circle clip-path="url(#clip402)" style="fill:#009af9; stroke:none; fill-opacity:0" cx="1717.44" cy="855.476" r="2"/>
<circle clip-path="url(#clip402)" style="fill:#009af9; stroke:none; fill-opacity:0" cx="1746.03" cy="893.48" r="2"/>
<circle clip-path="url(#clip402)" style="fill:#009af9; stroke:none; fill-opacity:0" cx="1774.63" cy="974.557" r="2"/>
<circle clip-path="url(#clip402)" style="fill:#009af9; stroke:none; fill-opacity:0" cx="1803.22" cy="972.023" r="2"/>
<circle clip-path="url(#clip402)" style="fill:#009af9; stroke:none; fill-opacity:0" cx="1831.82" cy="1063.23" r="2"/>
<circle clip-path="url(#clip402)" style="fill:#009af9; stroke:none; fill-opacity:0" cx="1860.41" cy="1075.9" r="2"/>
<circle clip-path="url(#clip402)" style="fill:#009af9; stroke:none; fill-opacity:0" cx="1889.01" cy="1106.31" r="2"/>
<circle clip-path="url(#clip402)" style="fill:#009af9; stroke:none; fill-opacity:0" cx="1917.6" cy="1144.31" r="2"/>
<circle clip-path="url(#clip402)" style="fill:#009af9; stroke:none; fill-opacity:0" cx="1946.2" cy="1172.18" r="2"/>
<path clip-path="url(#clip400)" d="M1759.58 190.111 L2001.57 190.111 L2001.57 86.4311 L1759.58 86.4311  Z" fill="#ffffff" fill-rule="evenodd" fill-opacity="1"/>
<polyline clip-path="url(#clip400)" style="stroke:#000000; stroke-linecap:round; stroke-linejoin:round; stroke-width:4; stroke-opacity:1; fill:none" points="1759.58,190.111 2001.57,190.111 2001.57,86.4311 1759.58,86.4311 1759.58,190.111 "/>
<path clip-path="url(#clip400)" d="M1780.64 159.007 L1907.01 159.007 L1907.01 117.535 L1780.64 117.535 L1780.64 159.007  Z" fill="#009af9" fill-rule="evenodd" fill-opacity="1"/>
<polyline clip-path="url(#clip400)" style="stroke:#000000; stroke-linecap:round; stroke-linejoin:round; stroke-width:4; stroke-opacity:1; fill:none" points="1780.64,159.007 1907.01,159.007 1907.01,117.535 1780.64,117.535 1780.64,159.007 "/>
<path clip-path="url(#clip400)" d="M1941.92 157.958 Q1940.11 162.588 1938.4 164 Q1936.69 165.412 1933.82 165.412 L1930.41 165.412 L1930.41 161.847 L1932.91 161.847 Q1934.67 161.847 1935.65 161.014 Q1936.62 160.181 1937.8 157.079 L1938.56 155.134 L1928.08 129.625 L1932.59 129.625 L1940.69 149.903 L1948.79 129.625 L1953.31 129.625 L1941.92 157.958 Z" fill="#000000" fill-rule="nonzero" fill-opacity="1" /><path clip-path="url(#clip400)" d="M1960.6 151.616 L1968.24 151.616 L1968.24 125.25 L1959.93 126.917 L1959.93 122.658 L1968.19 120.991 L1972.87 120.991 L1972.87 151.616 L1980.51 151.616 L1980.51 155.551 L1960.6 155.551 L1960.6 151.616 Z" fill="#000000" fill-rule="nonzero" fill-opacity="1" /></svg>
